<svg id="Capa_1" data-name="Capa 1" xmlns="http://www.w3.org/2000/svg" viewBox="0 0 65.71 56.9"><defs><style>.cls-1{fill:none;stroke:#7e7e7e;stroke-linecap:round;stroke-linejoin:round;stroke-width:2px;}</style></defs><title>iconos-disfruta</title><path class="cls-1" d="M62.63,34.88v5.49h0c0,8.54-7.34,15.53-16.31,15.53H19.39c-9,0-16.31-7-16.31-15.53h0V34.88"/><path class="cls-1" d="M13.39,34.29H3.13A2.14,2.14,0,0,1,1,32.16H1A2.14,2.14,0,0,1,3.13,30H62.58a2.14,2.14,0,0,1,2.13,2.13h0a2.14,2.14,0,0,1-2.13,2.13h-36"/><line class="cls-1" x1="26.59" y1="41.09" x2="13.39" y2="41.09"/><line class="cls-1" x1="4.65" y1="55.9" x2="61.07" y2="55.9"/><path class="cls-1" d="M62.63,29.28v-21A7.26,7.26,0,0,0,55.39,1h0a7.27,7.27,0,0,0-7.25,7.24"/><path class="cls-1" d="M50.59,17.55A6.72,6.72,0,0,0,39,10.83Z"/><rect class="cls-1" x="13.39" y="30.03" width="13.2" height="15.59"/></svg>