<svg id="Capa_1" data-name="Capa 1" xmlns="http://www.w3.org/2000/svg" viewBox="0 0 76.94 81.52"><defs><style>.cls-1{fill:#7e7e7e;stroke:#fff;stroke-width:0.25px;}.cls-1,.cls-2{stroke-miterlimit:10;}.cls-2{fill:none;stroke:#7e7e7e;stroke-linecap:round;stroke-width:2px;}</style></defs><title>iconos-disfruta</title><path class="cls-1" d="M75.63,79H70.34V64.84l5-14.76a1.19,1.19,0,0,0-2.26-.77L68.3,63.45h-14a1.19,1.19,0,0,0-1.19,1.19V79H39.66V57h16a1.2,1.2,0,0,0,0-2.39h-16V28l-1.43-.13q-.52-.06-1-.09l-.06.1a.76.76,0,0,1,.16,0V54.58h-16a1.2,1.2,0,1,0,0,2.39h16V79H23.87V64.64a1.19,1.19,0,0,0-1.19-1.19h-14L3.81,49.31a1.19,1.19,0,0,0-2.26.77L6.6,64.84V79H1.32a1.2,1.2,0,0,0,0,2.39H75.63a1.2,1.2,0,0,0,0-2.39ZM21.49,79H9v-2.5h12.5Zm0-4.88H9v-8.3h12.5ZM68,79H55.46v-2.5H68Zm0-4.88H55.46v-8.3H68Z"/><path class="cls-2" d="M7.69,27.8H69.25A1,1,0,0,0,69.89,26L39.11,1.23a1,1,0,0,0-1.28,0L7.05,26A1,1,0,0,0,7.69,27.8Z"/></svg>