<svg id="Capa_1" data-name="Capa 1" xmlns="http://www.w3.org/2000/svg" viewBox="0 0 69.8 67.59"><defs><style>.cls-1{fill:#3c3c3b;}.cls-2{opacity:0.5;}.cls-3{fill:#fff;}</style></defs><title>iconos</title><rect class="cls-1" x="-777.44" y="-692.59" width="1923" height="900"/><g class="cls-2"><path class="cls-3" d="M67.77,18.49H63.22a1.87,1.87,0,0,0-1.87,1.82H57.72a2.33,2.33,0,0,0-4.54,0H8.4a2.33,2.33,0,0,0-4.54,0H1.56v1h2.3a2.34,2.34,0,0,0,1.77,1.77V36.75H.15V67.44h11V46H49.47V67.44H60.52V36.75H56V23.08a2.34,2.34,0,0,0,1.77-1.77h3.63a1.88,1.88,0,0,0,1.87,1.83h4.55a1.88,1.88,0,0,0,1.88-1.88v-.9A1.88,1.88,0,0,0,67.77,18.49Zm-61.64,1a1.34,1.34,0,0,1,1.23.82H4.9A1.34,1.34,0,0,1,6.13,19.49ZM4.9,21.31H7.36a1.33,1.33,0,0,1-2.46,0Zm5.3,45.13h-9V46h9ZM10.2,45h-9V37.75h9Zm39.27,0H11.2V37.75H49.47ZM59.52,66.44H50.47V46h9.05Zm0-21.47H50.47V37.75h9.05ZM49.47,36.75H6.63V23.08A2.34,2.34,0,0,0,8.4,21.31H53.18A2.34,2.34,0,0,0,55,23.08V36.75Zm6-14.61a1.33,1.33,0,0,1-1.23-.83h2.46A1.33,1.33,0,0,1,55.45,22.14Zm-1.23-1.83a1.33,1.33,0,0,1,2.46,0Zm14.43,1a.87.87,0,0,1-.88.88H63.22a.88.88,0,0,1-.88-.88v-.9a.88.88,0,0,1,.88-.87h4.55a.87.87,0,0,1,.88.87Z"/><path class="cls-3" d="M60.67,67.59H49.32V46.12h-38V67.59H0v-31H5.48V23.2a2.47,2.47,0,0,1-1.73-1.74H1.41v-1.3H3.74a2.48,2.48,0,0,1,4.78,0H53.06a2.48,2.48,0,0,1,4.78,0h3.37a2,2,0,0,1,2-1.82h4.55a2,2,0,0,1,2,2v.9a2,2,0,0,1-2,2H63.22a2,2,0,0,1-2-1.83H57.83A2.47,2.47,0,0,1,56.1,23.2V36.6h4.57Zm-11.05-.3H60.37V36.9H55.8V23l.12,0a2.17,2.17,0,0,0,1.65-1.66l0-.12h3.89v.15A1.73,1.73,0,0,0,63.22,23h4.55a1.73,1.73,0,0,0,1.73-1.73v-.9a1.72,1.72,0,0,0-1.73-1.72H63.22a1.73,1.73,0,0,0-1.72,1.68v.14H57.6l0-.11a2.17,2.17,0,0,0-4.24,0l0,.11h-45l0-.11a2.17,2.17,0,0,0-4.24,0l0,.11H1.71v.7H4l0,.12a2.17,2.17,0,0,0,1.65,1.66l.12,0V36.9H.3V67.29H11.05V45.82H49.62Zm10.05-.7H50.32V45.82h9.35Zm-9.05-.3h8.75V46.12H50.62Zm-40.27.3H1V45.82h9.35Zm-9-.3h8.75V46.12H1.3ZM59.67,45.12H50.32V37.6h9.35Zm-9.05-.3h8.75V37.9H50.62Zm-1,.3H11.05V37.6H49.62Zm-38.27-.3h38V37.9h-38Zm-1,.3H1V37.6h9.35Zm-9-.3h8.75V37.9H1.3ZM55.1,36.9H6.48V23l.12,0a2.17,2.17,0,0,0,1.65-1.66l0-.12h45l0,.12A2.17,2.17,0,0,0,55,22.94l.12,0ZM6.78,36.6h48V23.2a2.47,2.47,0,0,1-1.73-1.74H8.51A2.47,2.47,0,0,1,6.78,23.2Zm61-14.31H63.22a1,1,0,0,1-1-1v-.9a1,1,0,0,1,1-1h4.55a1,1,0,0,1,1,1v.9A1,1,0,0,1,67.77,22.29Zm-4.55-2.65a.73.73,0,0,0-.73.72v.9a.73.73,0,0,0,.73.73h4.55a.73.73,0,0,0,.73-.73v-.9a.73.73,0,0,0-.73-.72Zm-7.77,2.65a1.45,1.45,0,0,1-1.36-.92L54,21.16h2.9l-.09.21A1.46,1.46,0,0,1,55.45,22.29Zm-1-.83a1.17,1.17,0,0,0,2,0Zm-48.34.83a1.45,1.45,0,0,1-1.36-.92l-.09-.21h2.9l-.09.21A1.45,1.45,0,0,1,6.13,22.29Zm-1-.83a1.17,1.17,0,0,0,2,0Zm51.75-1H54l.09-.2a1.47,1.47,0,0,1,2.72,0Zm-2.43-.3h2a1.18,1.18,0,0,0-2,0Zm-46.89.3H4.68l.09-.2a1.47,1.47,0,0,1,2.72,0Zm-2.43-.3h2a1.18,1.18,0,0,0-2,0Z"/><path class="cls-3" d="M31.57,13.15a2.92,2.92,0,0,1-1.91-.68.38.38,0,1,1,.49-.57,2.32,2.32,0,0,0,2.62.17,2.8,2.8,0,0,0,1.29-2.44A3.62,3.62,0,0,0,32.8,7a9.74,9.74,0,0,0-1.33-.91,5,5,0,0,1-2.33-2.25A2.74,2.74,0,0,1,31.9.16a.37.37,0,0,1,.34.4.37.37,0,0,1-.4.35,2,2,0,0,0-1.75.8,2,2,0,0,0-.25,1.9,4.35,4.35,0,0,0,2,1.87,10.11,10.11,0,0,1,1.43,1,4.39,4.39,0,0,1,1.53,3.15,3.59,3.59,0,0,1-1.66,3.1A3.09,3.09,0,0,1,31.57,13.15Z"/><path class="cls-3" d="M31.57,13.3a3,3,0,0,1-2-.72.52.52,0,0,1,0-.74.51.51,0,0,1,.74-.05,2.17,2.17,0,0,0,2.45.15,2.65,2.65,0,0,0,1.21-2.31A3.46,3.46,0,0,0,32.7,7.15a10,10,0,0,0-1.28-.88A5.12,5.12,0,0,1,29,3.94,2.89,2.89,0,0,1,31.91,0a.5.5,0,0,1,.36.18.53.53,0,0,1,.12.38.55.55,0,0,1-.2.39.52.52,0,0,1-.38.1,1.87,1.87,0,0,0-1.6.73A1.88,1.88,0,0,0,30,3.55a4.17,4.17,0,0,0,2,1.8,11.06,11.06,0,0,1,1.45,1A4.51,4.51,0,0,1,35,9.61a3.76,3.76,0,0,1-1.73,3.24A3.32,3.32,0,0,1,31.57,13.3ZM29.9,12a.21.21,0,0,0-.17.08.23.23,0,0,0,0,.32,2.82,2.82,0,0,0,1.82.64,3,3,0,0,0,1.52-.41,3.43,3.43,0,0,0,1.58-3,4.21,4.21,0,0,0-1.47-3,10.45,10.45,0,0,0-1.41-1A4.47,4.47,0,0,1,29.7,3.66,2.13,2.13,0,0,1,31.85.76a.19.19,0,0,0,.15,0,.22.22,0,0,0,.09-.17A.18.18,0,0,0,32,.39a.19.19,0,0,0-.15-.08,2.63,2.63,0,0,0-2.28,1,2.62,2.62,0,0,0-.33,2.48A4.83,4.83,0,0,0,31.55,6a8.93,8.93,0,0,1,1.35.93,3.74,3.74,0,0,1,1.31,2.7,3,3,0,0,1-1.36,2.57,2.49,2.49,0,0,1-2.8-.19A.25.25,0,0,0,29.9,12Z"/><path class="cls-3" d="M37.6,15.41a3,3,0,0,1-1.92-.68.38.38,0,0,1,0-.53.37.37,0,0,1,.53,0,2.32,2.32,0,0,0,2.62.17,2.8,2.8,0,0,0,1.29-2.44A3.63,3.63,0,0,0,38.82,9.3a9.05,9.05,0,0,0-1.32-.91,5,5,0,0,1-2.33-2.25,2.79,2.79,0,0,1,.34-2.62,2.81,2.81,0,0,1,2.41-1.1.38.38,0,1,1-.06.75,2,2,0,0,0-1.74.8,2,2,0,0,0-.25,1.9,4.35,4.35,0,0,0,2,1.87,10.11,10.11,0,0,1,1.43,1,4.41,4.41,0,0,1,1.52,3.15A3.58,3.58,0,0,1,39.19,15,3.11,3.11,0,0,1,37.6,15.41Z"/><path class="cls-3" d="M37.6,15.56a3,3,0,0,1-2-.72.52.52,0,0,1-.06-.74.54.54,0,0,1,.75,0,2.17,2.17,0,0,0,2.44.15,2.64,2.64,0,0,0,1.22-2.31,3.49,3.49,0,0,0-1.21-2.48,9.75,9.75,0,0,0-1.31-.9A5.05,5.05,0,0,1,35,6.2a3,3,0,0,1,.36-2.77,3,3,0,0,1,2.55-1.16.53.53,0,0,1,.48.57.51.51,0,0,1-.2.37.48.48,0,0,1-.38.11A1.82,1.82,0,0,0,36,5.81a4.24,4.24,0,0,0,2,1.81,10.7,10.7,0,0,1,1.45,1A4.54,4.54,0,0,1,41,11.88a3.72,3.72,0,0,1-1.72,3.23A3.34,3.34,0,0,1,37.6,15.56Zm-1.67-1.34a.2.2,0,0,0-.17.08.23.23,0,0,0,0,.32,2.8,2.8,0,0,0,1.82.64,2.93,2.93,0,0,0,1.51-.41,3.43,3.43,0,0,0,1.58-3,4.25,4.25,0,0,0-1.47-3,10,10,0,0,0-1.41-1,4.45,4.45,0,0,1-2.08-1.95A2.13,2.13,0,0,1,37.88,3,.24.24,0,0,0,38,3a.23.23,0,0,0-.12-.41,2.64,2.64,0,0,0-2.28,1,2.67,2.67,0,0,0-.33,2.48,4.9,4.9,0,0,0,2.28,2.17,9.9,9.9,0,0,1,1.34.92,3.79,3.79,0,0,1,1.32,2.71,3,3,0,0,1-1.36,2.57,2.48,2.48,0,0,1-2.8-.19A.27.27,0,0,0,35.93,14.22Z"/></g></svg>