<svg id="Capa_1" data-name="Capa 1" xmlns="http://www.w3.org/2000/svg" viewBox="0 0 131 82.39"><defs><style>.cls-1{fill:#7e7e7e;}</style></defs><title>Landing_La_Huasa</title><path class="cls-1" d="M107.43,57.65a3.12,3.12,0,0,0-2.08-2.93v-21A8.24,8.24,0,0,0,89,32.38a7.74,7.74,0,0,0-9.17,3.45,1,1,0,0,0,.37,1.36l11.63,6.72a1,1,0,0,0,.5.13,1,1,0,0,0,.86-.5,7.72,7.72,0,0,0-2.29-10.2,6.24,6.24,0,0,1,12.47.4V54.52H44.85a3.12,3.12,0,0,0-1.05,6.07v5.27a16.45,16.45,0,0,0,9.06,14.53H46.37a1,1,0,1,0,0,2h56.42a1,1,0,0,0,0-2h-6.5a16.45,16.45,0,0,0,9.06-14.53V60.59A3.13,3.13,0,0,0,107.43,57.65Zm-15.56-16L82.12,36A5.71,5.71,0,0,1,92,38.2,5.65,5.65,0,0,1,91.87,41.63ZM56.11,67.58h11.2v2.53H56.11Zm11.2-11.06v9.06H56.11V56.52Zm-22.46,0h9.26v2.26H44.85a1.13,1.13,0,1,1,0-2.26ZM88,80.39H61.11c-8.44,0-15.31-6.52-15.31-14.53V60.78h8.31v5.8h0v4.52a1,1,0,0,0,1,1h13.2a1,1,0,0,0,1-1V66.59h0v-5.8h34v5.08C103.35,73.87,96.48,80.39,88,80.39ZM104.3,58.78h-35V56.52h35a1.13,1.13,0,1,1,0,2.26Z"/></svg>