<svg id="Capa_1" data-name="Capa 1" xmlns="http://www.w3.org/2000/svg" viewBox="0 0 131 82.39"><defs><style>.cls-1{fill:#7e7e7e;}</style></defs><title>Landing_La_Huasa</title><path class="cls-1" d="M39.35,82.39H33.14a1,1,0,0,1-1-1V75.76a1,1,0,0,1,2,0v4.63h4.21V75.76a1,1,0,0,1,2,0v5.63A1,1,0,0,1,39.35,82.39Z"/><path class="cls-1" d="M98.24,45.76H96.65V36a5.71,5.71,0,0,0-5.7-5.7H40.05a5.71,5.71,0,0,0-5.7,5.7v9.8H32.76a5.7,5.7,0,0,0-5.7,5.7V71.05a5.71,5.71,0,0,0,5.7,5.71H91.54v4.63a1,1,0,0,0,1,1h6.22a1,1,0,0,0,1-1V76.54a5.69,5.69,0,0,0,4.18-5.49V51.46A5.7,5.7,0,0,0,98.24,45.76ZM40.05,32.26H91a3.7,3.7,0,0,1,3.7,3.7v9.8a5.71,5.71,0,0,0-5.6,5.7v7.11H42V51.46a5.71,5.71,0,0,0-5.6-5.7V36A3.7,3.7,0,0,1,40.05,32.26ZM42,60.57h47.1v5.26H42ZM93.54,80.39V76.76h4.22v3.63Zm8.4-9.34a3.71,3.71,0,0,1-3.7,3.71H32.76a3.71,3.71,0,0,1-3.7-3.71V51.46a3.7,3.7,0,0,1,3.7-3.7h3.49a3.7,3.7,0,0,1,3.7,3.7V66.83a1,1,0,0,0,1,1h49.1a1,1,0,0,0,1-1V51.46a3.7,3.7,0,0,1,3.7-3.7h3.49a3.7,3.7,0,0,1,3.7,3.7Z"/></svg>