<svg id="Capa_1" data-name="Capa 1" xmlns="http://www.w3.org/2000/svg" viewBox="0 0 49.2 55.2"><defs><style>.cls-1{fill:#3c3c3b;}.cls-2{opacity:0.5;}.cls-3{fill:#fff;}</style></defs><title>iconos</title><rect class="cls-1" x="-1241.9" y="-704.98" width="1923" height="900"/><g class="cls-2"><polygon class="cls-3" points="14.45 5.45 18.58 9.4 19.07 8.94 14.45 4.53 9.83 8.94 10.31 9.4 14.45 5.45"/><polygon class="cls-3" points="39.85 4.99 39.37 4.53 35.23 8.48 31.09 4.53 30.61 4.99 35.23 9.4 39.85 4.99"/><path class="cls-3" d="M30.31,44.13a8.63,8.63,0,0,1-3.26,3.31,9,9,0,0,1-4.6,1.23,8.81,8.81,0,0,1-6.26-2.48A8.16,8.16,0,0,1,15,35.59a8.68,8.68,0,0,1,3.6-3l-.22-1.65a10.17,10.17,0,0,0-4.58,3.52,9.67,9.67,0,0,0-.5,10.8,10.39,10.39,0,0,0,3.85,3.68,10.74,10.74,0,0,0,5.27,1.35,10.6,10.6,0,0,0,6.2-1.94,10,10,0,0,0,3.79-4.93l-1.17-2.25A8.08,8.08,0,0,1,30.31,44.13Z"/><path class="cls-3" d="M37.38,43.76l-4.49-8.55a.74.74,0,0,0-.74-.44H23.2l-.4-3h7.76v-1.6h-8l-.8-6,.47.05a2.48,2.48,0,0,0,2-.66,2.4,2.4,0,0,0,.87-1.86,2.37,2.37,0,0,0-.78-1.79,2.58,2.58,0,0,0-1.88-.75,2.7,2.7,0,0,0-1.61.5,2.27,2.27,0,0,0-.94,1.3,1.59,1.59,0,0,0-.11.62l1.82,14.1a.79.79,0,0,0,.29.51.85.85,0,0,0,.55.2h9.17l4.63,8.83a.77.77,0,0,0,.75.44.75.75,0,0,0,.37-.09l4.52-2.16L41.13,42Z"/><path class="cls-3" d="M0,0V55.2H49.2V0ZM48,1.2V12H1.2V1.2ZM1.2,54V13.2H48V54Z"/></g></svg>