<svg id="Capa_1" data-name="Capa 1" xmlns="http://www.w3.org/2000/svg" viewBox="0 0 81.3 57.59"><defs><style>.cls-1{fill:#3c3c3b;}.cls-2{fill:#fff;opacity:0.5;}</style></defs><title>iconos</title><rect class="cls-1" x="-1003.94" y="-702.58" width="1923" height="900"/><path class="cls-2" d="M40.65,5.81,0,0V43.11L39.49,57.52l.2.07L81,43.24l.35-.12V0Zm-12,7.84V37L23.47,38V13.29Zm-6-.43V38.11L16.46,39.2V12.79Zm-7.33-1.73V39.42l-14,2.51V1.39L40.05,6.94V35L29.81,36.82V12.53ZM45,36.89,8,44.75,2.84,42.86l37.81-6.75ZM41.25,35v-28L80.09,1.39V41.93Zm28,6.23,9.16,1.63L39.7,56.31l-8.65-3.16Zm-1.88-.34L29.68,52.65l-9.42-3.43,38-10Zm-11.15-2-37.39,9.8L9.57,45.32l37.77-8Z"/></svg>