<svg id="Capa_1" data-name="Capa 1" xmlns="http://www.w3.org/2000/svg" viewBox="0 0 69 74.69"><defs><style>.cls-1{fill:none;}.cls-1,.cls-3{stroke:#7e7e7e;stroke-linecap:round;stroke-miterlimit:10;stroke-width:2px;}.cls-2{fill:#7e7e7e;}.cls-3{fill:#fff;}</style></defs><title>iconos-disfruta</title><rect class="cls-1" x="36.19" y="39.96" width="31.81" height="6.52"/><polygon class="cls-1" points="64.74 67.69 39.45 67.69 38.16 46.48 66.04 46.48 64.74 67.69"/><path class="cls-2" d="M61.51,16.94a10,10,0,0,0-6,1.94,8.36,8.36,0,0,0-3.1,4.27,4.32,4.32,0,0,0,1.11,4.55,19.62,19.62,0,0,0-1.1,2.2A8.13,8.13,0,0,0,51.31,28a3.6,3.6,0,0,0,.21-3.29A6.31,6.31,0,0,0,49,21.85a8,8,0,0,0-4.33-1.24,10.18,10.18,0,0,0-6,2.09l-1,.73,1.21.33c2,.54,3.58,2.08,5,3.43s2.78,2.69,4.35,2.69h0a3.44,3.44,0,0,0,2.25-.94,6.35,6.35,0,0,1,1.21,3.71v7.6H52.9V32.51a9.87,9.87,0,0,1,1.56-4.13,4.47,4.47,0,0,0,2.11.6c2.2,0,3.64-2.11,5.15-4.34,1.35-2,2.89-4.24,5.17-5.41L68,18.66l-1.14-.51a13.08,13.08,0,0,0-5.35-1.21ZM48.25,28.68h0c-1.08,0-2.21-1.09-3.52-2.35A15.92,15.92,0,0,0,40.4,23a8.38,8.38,0,0,1,4.27-1.23,6.13,6.13,0,0,1,5.73,3.38,2.58,2.58,0,0,1,.06,1.88,16,16,0,0,0-3-2.3l-.53-.34-.69,1c.15.11.35.24.58.38A14.78,14.78,0,0,1,49.73,28a2.32,2.32,0,0,1-1.48.66ZM60.73,24c-1.39,2.05-2.59,3.81-4.16,3.81a3.16,3.16,0,0,1-1.49-.43l.16-.26c1.19-1.87,2.39-3.39,2.4-3.41l-.93-.74a40.39,40.39,0,0,0-2.6,3.7,3.17,3.17,0,0,1-.58-3.16,7.08,7.08,0,0,1,2.65-3.64,8.84,8.84,0,0,1,5.33-1.71,11.29,11.29,0,0,1,3.76.68A18.76,18.76,0,0,0,60.73,24Z"/><path class="cls-2" d="M37.68,0a14.35,14.35,0,0,0-8.63,2.78,11.92,11.92,0,0,0-4.42,6.1,6.17,6.17,0,0,0,1.58,6.49,29.65,29.65,0,0,0-1.57,3.14,11.61,11.61,0,0,0-1.53-2.67,5.07,5.07,0,0,0,.3-4.69A9,9,0,0,0,19.82,7a11.48,11.48,0,0,0-6.19-1.77,14.51,14.51,0,0,0-8.49,3l-1.44,1,1.72.46c2.84.78,5.11,3,7.11,4.9s4,3.84,6.21,3.84h0A4.86,4.86,0,0,0,22,17.14a9,9,0,0,1,1.73,5.3V33.3h1.71V22.23c0-1.36.8-3.37,2.23-5.88a6.33,6.33,0,0,0,3,.85c3.14,0,5.19-3,7.35-6.19,1.93-2.84,4.12-6.07,7.38-7.73L47,2.46l-1.63-.72A18.61,18.61,0,0,0,37.68,0ZM18.75,16.77h0c-1.55,0-3.16-1.55-5-3.36A22.84,22.84,0,0,0,7.54,8.7,12.06,12.06,0,0,1,13.63,7c4.13,0,7.24,2.43,8.19,4.83a3.65,3.65,0,0,1,.08,2.68,22.76,22.76,0,0,0-4.27-3.29l-.75-.48-1,1.39.83.54a21,21,0,0,1,4.14,3.21,3.3,3.3,0,0,1-2.11.94Zm17.82-6.72c-2,2.92-3.7,5.44-5.94,5.44a4.51,4.51,0,0,1-2.14-.62l.24-.37c1.69-2.68,3.41-4.84,3.43-4.87L30.82,8.57a61.4,61.4,0,0,0-3.71,5.29,4.58,4.58,0,0,1-.83-4.52,10.1,10.1,0,0,1,3.79-5.19,12.64,12.64,0,0,1,7.61-2.44,16.16,16.16,0,0,1,5.37,1c-2.79,2-4.74,4.81-6.48,7.38Z"/><rect class="cls-3" x="1" y="33.63" width="45.95" height="9.42"/><polygon class="cls-3" points="42.23 73.69 5.71 73.69 3.84 43.06 44.11 43.06 42.23 73.69"/></svg>