<svg id="Capa_1" data-name="Capa 1" xmlns="http://www.w3.org/2000/svg" viewBox="0 0 54.4 68.35"><defs><style>.cls-1{fill:none;stroke:#7e7e7e;stroke-linecap:round;stroke-linejoin:round;stroke-width:2px;}</style></defs><title>iconos-disfruta</title><rect class="cls-1" x="1" y="1" width="52.4" height="66.35"/><line class="cls-1" x1="47.52" y1="14.47" x2="53.4" y2="14.47"/><line class="cls-1" x1="1" y1="14.47" x2="36.82" y2="14.47"/><circle class="cls-1" cx="27.2" cy="40.52" r="18.51"/><path class="cls-1" d="M39.05,40.52A11.85,11.85,0,1,1,27.2,28.68"/><line class="cls-1" x1="17.11" y1="1" x2="17.11" y2="14.47"/><path class="cls-1" d="M27.78,7.73a3.15,3.15,0,1,1-3.15-3.15A3.15,3.15,0,0,1,27.78,7.73Z"/><path class="cls-1" d="M38.65,7.73A3.15,3.15,0,1,1,35.5,4.58,3.15,3.15,0,0,1,38.65,7.73Z"/><path class="cls-1" d="M49.51,7.73a3.15,3.15,0,1,1-3.15-3.15A3.15,3.15,0,0,1,49.51,7.73Z"/><line class="cls-1" x1="5.09" y1="4.95" x2="13.26" y2="4.95"/><line class="cls-1" x1="5.09" y1="9.03" x2="13.26" y2="9.03"/></svg>