<svg id="Capa_1" data-name="Capa 1" xmlns="http://www.w3.org/2000/svg" viewBox="0 0 61.04 60"><defs><style>.cls-1{fill:#3c3c3b;}.cls-2{opacity:0.5;}.cls-3{fill:#fff;}</style></defs><title>iconos</title><rect class="cls-1" x="-560.4" y="-700.17" width="1923" height="900"/><g class="cls-2"><path class="cls-3" d="M3.39,9.49a.67.67,0,0,0,.68-.67A7.46,7.46,0,1,1,19,8.82V46.05a.68.68,0,1,0,1.36,0V31.2H46.12V46.05a.68.68,0,1,0,1.35,0V8.82a8.82,8.82,0,1,0-17.63,0,.68.68,0,0,0,1.36,0,7.46,7.46,0,0,1,14.92,0V19H20.35V8.82a8.82,8.82,0,0,0-17.64,0A.68.68,0,0,0,3.39,9.49ZM46.12,20.35v9.49H20.35V20.35Z"/><path class="cls-3" d="M60.36,58.64a7.89,7.89,0,0,1-5.55-2.23,9.32,9.32,0,0,0-12.79,0,8,8,0,0,1-11.08,0,9.32,9.32,0,0,0-12.79,0,8,8,0,0,1-11.08,0A9.1,9.1,0,0,0,.68,53.87a.68.68,0,0,0,0,1.36,7.88,7.88,0,0,1,5.54,2.23A9.1,9.1,0,0,0,12.61,60,9.1,9.1,0,0,0,19,57.46a8,8,0,0,1,11.09,0,9.31,9.31,0,0,0,12.78,0,8,8,0,0,1,11.1,0A9.1,9.1,0,0,0,60.36,60a.68.68,0,1,0,0-1.36Z"/><rect class="cls-3" x="20.35" y="40.63" width="25.77" height="1.36"/></g></svg>