<svg id="Capa_1" data-name="Capa 1" xmlns="http://www.w3.org/2000/svg" viewBox="0 0 76.88 52.13"><defs><style>.cls-1{fill:none;stroke:#7e7e7e;stroke-linecap:round;stroke-linejoin:round;stroke-width:2px;}</style></defs><title>iconos-disfruta</title><path class="cls-1" d="M5.7,45.5H71.18a4.72,4.72,0,0,0,4.7-4.71V21.2a4.72,4.72,0,0,0-4.7-4.71H67.69A4.72,4.72,0,0,0,63,21.2V36.57H13.89V21.2a4.72,4.72,0,0,0-4.7-4.71H5.7A4.72,4.72,0,0,0,1,21.2V40.79A4.72,4.72,0,0,0,5.7,45.5"/><path class="cls-1" d="M8.29,16.49V5.7A4.72,4.72,0,0,1,13,1h50.9a4.71,4.71,0,0,1,4.7,4.7V16.49"/><polyline class="cls-1" points="12.29 45.49 12.29 51.13 6.08 51.13 6.08 45.49"/><polyline class="cls-1" points="71.7 45.49 71.7 51.13 65.49 51.13 65.49 45.49"/><line class="cls-1" x1="13.89" y1="29.31" x2="62.99" y2="29.31"/></svg>