<svg id="Capa_1" data-name="Capa 1" xmlns="http://www.w3.org/2000/svg" viewBox="0 0 131 82.39"><defs><style>.cls-1{fill:#7e7e7e;}</style></defs><title>Landing_La_Huasa</title><path class="cls-1" d="M57,4.39v40H8v9H22v23H0v2H131v-74Zm-19.64,72,4.37-14h1.54l4.37,14Zm-2.86-16v-2h16v2Zm22.5,16H49.73l-4.37-14H52.5v-6h-20v6h7.14l-4.37,14H24v-23H57Zm0-25H10v-5H57Zm72,25H59v-70h70Z"/><polygon class="cls-1" points="68 46.39 68 44.39 68 39.39 66 39.39 66 44.39 66 46.39 66 47.39 68 47.39 68 46.39"/><rect class="cls-1" y="80.39" width="131" height="2"/></svg>