<svg id="Capa_1" data-name="Capa 1" xmlns="http://www.w3.org/2000/svg" viewBox="0 0 131 82.39"><defs><style>.cls-1{fill:#7e7e7e;}</style></defs><title>Landing_La_Huasa</title><path class="cls-1" d="M83.81,3.64H38.46a1,1,0,0,0-1,1V81.39a1,1,0,0,0,1,1H83.81a1,1,0,0,0,1-1V4.64A1,1,0,0,0,83.81,3.64Zm-1,76.75H39.46V67.89H76a1,1,0,0,0,0-2H39.46V5.64H82.81Z"/><path class="cls-1" d="M62.09,73.37H60.18a1,1,0,0,0,0,2h1.91a1,1,0,0,0,0-2Z"/><path class="cls-1" d="M57,13.56h8.23a1,1,0,0,0,0-2H57a1,1,0,1,0,0,2Z"/></svg>