<svg id="Capa_1" data-name="Capa 1" xmlns="http://www.w3.org/2000/svg" viewBox="0 0 131 82.39"><defs><style>.cls-1{fill:#7e7e7e;}</style></defs><title>Landing_La_Huasa</title><path class="cls-1" d="M90,5.17H41a1,1,0,0,0-1,1V81.39a1,1,0,0,0,1,1H90a1,1,0,0,0,1-1V6.17A1,1,0,0,0,90,5.17Zm-48,2H64.5V80.39H42ZM89,80.39H66.5V7.17H89Z"/><path class="cls-1" d="M73.29,47.91a1,1,0,0,0,1-1V40.65a1,1,0,1,0-2,0v6.26A1,1,0,0,0,73.29,47.91Z"/><path class="cls-1" d="M57.71,39.65a1,1,0,0,0-1,1v6.26a1,1,0,0,0,2,0V40.65A1,1,0,0,0,57.71,39.65Z"/></svg>