<svg id="Capa_1" data-name="Capa 1" xmlns="http://www.w3.org/2000/svg" viewBox="0 0 131 82.39"><defs><style>.cls-1{fill:#7e7e7e;}</style></defs><title>Landing_La_Huasa</title><path class="cls-1" d="M83.9,46.66c0-2.13,0-6.16,0-6.45a9.84,9.84,0,0,1,1.55-4.12,4.47,4.47,0,0,0,2.11.6c2.2,0,3.64-2.11,5.15-4.34,1.35-2,2.89-4.25,5.17-5.41L99,26.37l-1.14-.51a13.1,13.1,0,0,0-5.35-1.22,10,10,0,0,0-6,1.95,8.33,8.33,0,0,0-3.1,4.27,4.32,4.32,0,0,0,1.11,4.55,18.06,18.06,0,0,0-1.1,2.2,7.93,7.93,0,0,0-1.07-1.87,3.6,3.6,0,0,0,.21-3.29A6.33,6.33,0,0,0,80,29.55a8,8,0,0,0-4.33-1.24,10.25,10.25,0,0,0-6,2.09l-1,.74,1.21.33c2,.54,3.58,2.07,5,3.43s2.78,2.69,4.35,2.69h0a3.44,3.44,0,0,0,2.25-.94,6.35,6.35,0,0,1,1.21,3.71v6.3H79V40.34H56.39V29.94c0-1.36.8-3.37,2.23-5.89a6.33,6.33,0,0,0,3,.85c3.14,0,5.19-3,7.35-6.19,1.93-2.84,4.12-6.06,7.38-7.73L78,10.17l-1.63-.73a18.75,18.75,0,0,0-7.64-1.73,14.41,14.41,0,0,0-8.63,2.77,12,12,0,0,0-4.42,6.11,6.18,6.18,0,0,0,1.58,6.49,28.73,28.73,0,0,0-1.57,3.14,11.61,11.61,0,0,0-1.53-2.67,5.07,5.07,0,0,0,.3-4.69,8.92,8.92,0,0,0-3.59-4.14A11.48,11.48,0,0,0,44.63,13a14.57,14.57,0,0,0-8.49,3L34.7,17l1.72.47c2.84.77,5.11,3,7.11,4.9s4,3.84,6.22,3.84h0A4.86,4.86,0,0,0,53,24.85a9,9,0,0,1,1.73,5.29v10.2H31V51.76h2.9l1.87,30.63h38.4l.37-6H96.68L98,55.19h2V46.66Zm.63-15.48a7.1,7.1,0,0,1,2.65-3.63,8.84,8.84,0,0,1,5.33-1.71,11.48,11.48,0,0,1,3.76.67,19,19,0,0,0-4.54,5.17c-1.39,2-2.59,3.81-4.16,3.81a3.16,3.16,0,0,1-1.49-.43l.16-.26c1.19-1.88,2.39-3.4,2.4-3.41l-.93-.75a41.33,41.33,0,0,0-2.6,3.71A3.18,3.18,0,0,1,84.53,31.18Zm-3.07,3.59a15.7,15.7,0,0,0-3-2.3l-.53-.34-.69,1c.15.11.35.23.58.38a14.4,14.4,0,0,1,2.9,2.25,2.32,2.32,0,0,1-1.48.66h0c-1.08,0-2.21-1.09-3.52-2.35a16,16,0,0,0-4.33-3.31,8.46,8.46,0,0,1,4.27-1.22,6.13,6.13,0,0,1,5.73,3.38A2.57,2.57,0,0,1,81.46,34.77ZM57.28,17.05a10.06,10.06,0,0,1,3.79-5.19,12.57,12.57,0,0,1,7.61-2.44,16.16,16.16,0,0,1,5.37,1c-2.79,1.94-4.74,4.8-6.48,7.37-2,2.92-3.7,5.44-5.94,5.44a4.61,4.61,0,0,1-2.14-.61l.24-.37c1.69-2.68,3.41-4.85,3.43-4.87l-1.34-1.06a59.62,59.62,0,0,0-3.71,5.29A4.59,4.59,0,0,1,57.28,17.05ZM52.9,22.16a22.63,22.63,0,0,0-4.27-3.28c-.31-.2-.57-.36-.75-.49l-1,1.4c.22.15.5.33.83.53a21.41,21.41,0,0,1,4.14,3.21,3.27,3.27,0,0,1-2.11.95h0c-1.55,0-3.16-1.56-5-3.36a22.49,22.49,0,0,0-6.18-4.71,12,12,0,0,1,6.09-1.75c4.13,0,7.24,2.42,8.19,4.82A3.65,3.65,0,0,1,52.9,22.16ZM33.77,49.76H33V42.34H77v7.42H33.77ZM72.29,80.39H37.65L35.9,51.76H74.05L74,53.19l-.12,2-1.18,19.2-.12,2Zm22.51-6H74.66l1.18-19.2H96ZM76,53.19l.09-1.43H79v-3.1H98v4.53Z"/></svg>