<svg id="Capa_1" data-name="Capa 1" xmlns="http://www.w3.org/2000/svg" viewBox="0 0 131 82.39"><defs><style>.cls-1{fill:#7e7e7e;}</style></defs><title>Landing_La_Huasa</title><path class="cls-1" d="M91.7,14.05H39.3a1,1,0,0,0-1,1V81.39a1,1,0,0,0,1,1H91.7a1,1,0,0,0,1-1V15.05A1,1,0,0,0,91.7,14.05Zm-37.3,2V27.51H40.3V16.05ZM40.3,80.39V29.51H75.12a1,1,0,0,0,0-2H56.4V16.05H90.7V27.51H85.81a1,1,0,0,0,0,2H90.7V80.39Z"/><path class="cls-1" d="M65.5,35.06A19.51,19.51,0,1,0,85,54.57,19.53,19.53,0,0,0,65.5,35.06Zm0,37A17.51,17.51,0,1,1,83,54.57,17.52,17.52,0,0,1,65.5,72.08Z"/><path class="cls-1" d="M76.35,54.57A10.85,10.85,0,1,1,65.5,43.72a1,1,0,0,0,0-2A12.85,12.85,0,1,0,78.35,54.57a1,1,0,1,0-2,0Z"/><path class="cls-1" d="M62.93,17.63a4.15,4.15,0,1,0,4.15,4.15A4.15,4.15,0,0,0,62.93,17.63Zm0,6.3a2.15,2.15,0,1,1,2.15-2.15A2.15,2.15,0,0,1,62.93,23.93Z"/><path class="cls-1" d="M77.94,21.78a4.15,4.15,0,1,0-4.15,4.15A4.15,4.15,0,0,0,77.94,21.78Zm-4.15,2.15a2.15,2.15,0,1,1,2.15-2.15A2.15,2.15,0,0,1,73.79,23.93Z"/><path class="cls-1" d="M84.65,25.93a4.15,4.15,0,1,0-4.15-4.15A4.15,4.15,0,0,0,84.65,25.93Zm0-6.3a2.15,2.15,0,1,1-2.15,2.15A2.15,2.15,0,0,1,84.65,19.63Z"/><path class="cls-1" d="M43.38,20h8.18a1,1,0,0,0,0-2H43.38a1,1,0,0,0,0,2Z"/><path class="cls-1" d="M43.38,24.08h8.18a1,1,0,0,0,0-2H43.38a1,1,0,0,0,0,2Z"/></svg>