<svg id="Capa_1" data-name="Capa 1" xmlns="http://www.w3.org/2000/svg" viewBox="0 0 131 82.39"><defs><style>.cls-1{fill:#7e7e7e;}</style></defs><title>Landing_La_Huasa</title><path class="cls-1" d="M107.35,80h-5.29V65.83l5-14.75a1.19,1.19,0,1,0-2.25-.77L100,64.44H86a1.19,1.19,0,0,0-1.19,1.19V80H71.39V58h16a1.19,1.19,0,1,0,0-2.38h-16V29.79H101a2,2,0,0,0,1.27-3.59L71.46,1.44a2,2,0,0,0-2.53,0L38.15,26.2a2,2,0,0,0-.64,2.24,2,2,0,0,0,1.91,1.35H69V55.58H53A1.19,1.19,0,0,0,53,58H69V80H55.6V65.63a1.2,1.2,0,0,0-1.2-1.19h-14L35.53,50.31a1.19,1.19,0,1,0-2.25.77l5,14.75V80H33a1.19,1.19,0,0,0,0,2.38h74.31a1.19,1.19,0,1,0,0-2.38ZM39.4,27.76,70.21,3,101,27.79H39.42ZM53.21,80H40.71v-2.5h12.5Zm0-4.89H40.71V66.83h12.5ZM99.68,80H87.18v-2.5h12.5Zm0-4.89H87.18V66.83h12.5Z"/></svg>