<svg id="Capa_1" data-name="Capa 1" xmlns="http://www.w3.org/2000/svg" viewBox="0 0 277 277"><defs><style>.cls-1{fill:#fff;}.cls-2{fill:#3c3c3b;}.cls-3{fill:#8aa15e;}</style></defs><title>Logo_La_Huasa</title><rect class="cls-1" width="277" height="277"/><rect class="cls-2" x="4.64" y="4.64" width="267.72" height="267.72"/><path class="cls-1" d="M32.31,97H43.56a16.72,16.72,0,0,1,5.06.71,11.11,11.11,0,0,1,3.92,2.1,9.51,9.51,0,0,1,2.55,3.41,11.09,11.09,0,0,1,.91,4.63,11.59,11.59,0,0,1-1,4.91,9.24,9.24,0,0,1-2.73,3.44,12.22,12.22,0,0,1-4.15,2,19.35,19.35,0,0,1-5.28.68H37.54v13.86H32.31Zm5.23,17.67h3.24a25.41,25.41,0,0,0,3.92-.29,8.92,8.92,0,0,0,3.09-1,5.29,5.29,0,0,0,2-2.07,7,7,0,0,0,.74-3.38,6.48,6.48,0,0,0-.71-3.16A6.17,6.17,0,0,0,48,102.64a7.51,7.51,0,0,0-2.61-1.14,13.23,13.23,0,0,0-3-.34H37.54Z"/><path class="cls-1" d="M73.45,97H78.1l14.26,35.79H86.91L83,122.81H68.27l-3.86,9.94H59Zm-3.75,21.7H81.46l-2.39-6.19q-1-2.44-1.76-4.72c-.53-1.51-1.06-3.07-1.59-4.66H75.6c-.53,1.59-1.08,3.13-1.64,4.6s-1.18,3.07-1.82,4.78Z"/><path class="cls-1" d="M101.23,97h11.64a14,14,0,0,1,4.92.79,9.76,9.76,0,0,1,3.55,2.22,9.33,9.33,0,0,1,2.16,3.38,12.15,12.15,0,0,1,.74,4.29,10.28,10.28,0,0,1-.63,3.69A9.69,9.69,0,0,1,122,114.2a10.71,10.71,0,0,1-2.36,2.1,16.13,16.13,0,0,1-2.7,1.45l9.43,15h-5.85l-8.47-14h-5.85v14h-4.94Zm4.94,17.5h4.32a14.11,14.11,0,0,0,3.27-.37,8,8,0,0,0,2.61-1.14,5.48,5.48,0,0,0,1.76-2,6.34,6.34,0,0,0,.65-3q0-3.47-1.9-5.11a8.24,8.24,0,0,0-5.54-1.65h-5.17Z"/><path class="cls-1" d="M151.05,96.9a18.91,18.91,0,0,1,6.71,1.16,14.7,14.7,0,0,1,5.31,3.47,15.71,15.71,0,0,1,3.49,5.74,23.33,23.33,0,0,1,1.25,8,19.89,19.89,0,0,1-2.44,10.17,20.28,20.28,0,0,1-7.9,7.27l-7.72,4.32a11.32,11.32,0,0,1,3.15.42c1,.29,1.94.6,2.93.94s2,.66,3.06.94a13.82,13.82,0,0,0,3.53.43,9,9,0,0,0,2.41-.37,8.32,8.32,0,0,0,2.42-1.17l2,3.81a12.3,12.3,0,0,1-3.49,1.53,13.76,13.76,0,0,1-3.55.51,14.81,14.81,0,0,1-3.95-.54c-1.31-.36-2.61-.75-3.89-1.19s-2.56-.83-3.81-1.19a13.49,13.49,0,0,0-3.75-.54,9.83,9.83,0,0,0-2.93.45,14.94,14.94,0,0,0-2.92,1.31l-2.16-3.92,8.75-5.06a15.71,15.71,0,0,1-5.48-1.84,14.6,14.6,0,0,1-4.27-3.64,16.46,16.46,0,0,1-2.78-5.43,24.22,24.22,0,0,1-1-7.21,22.27,22.27,0,0,1,1.3-7.93,16.57,16.57,0,0,1,3.58-5.76,15,15,0,0,1,5.37-3.53A18.71,18.71,0,0,1,151.05,96.9Zm-11.3,18.41a22.53,22.53,0,0,0,.79,6.33,13,13,0,0,0,2.25,4.52,9.36,9.36,0,0,0,3.43,2.73,10.39,10.39,0,0,0,4.32.91,10.81,10.81,0,0,0,4.43-.94,10.39,10.39,0,0,0,3.7-2.79,13.89,13.89,0,0,0,2.53-4.54,19.06,19.06,0,0,0,.93-6.22,20.53,20.53,0,0,0-.88-6.42,12.42,12.42,0,0,0-2.41-4.41,9.46,9.46,0,0,0-3.61-2.55,11.79,11.79,0,0,0-4.4-.83,11.25,11.25,0,0,0-4.38.86,9.07,9.07,0,0,0-3.52,2.61A12.83,12.83,0,0,0,140.6,109,20.77,20.77,0,0,0,139.75,115.31Z"/><path class="cls-1" d="M178.55,97h5.23v21.11q0,5.66,2.1,8.07c1.4,1.6,3.66,2.41,6.76,2.41s5.31-.9,6.74-2.69a11.14,11.14,0,0,0,2.13-7.12V97h5.22v21.65q0,7.24-3.75,10.72t-10.34,3.48q-6.64,0-10.37-3.45t-3.72-11Z"/><path class="cls-1" d="M219.63,97h21.59v4.31H224.86V112h14.88v4.26H224.86v12.16h16.53v4.32H219.63Z"/><path class="cls-3" d="M31.43,151.22h4.21v25.26H48v3.57H31.43Z"/><path class="cls-3" d="M64.24,151.22H68l11.49,28.83H75.09l-3.16-8H60.08l-3.12,8H52.62Zm-3,17.48h9.47l-1.92-5c-.52-1.32-1-2.58-1.42-3.8s-.85-2.47-1.28-3.76H66c-.43,1.29-.87,2.52-1.33,3.71l-1.46,3.85Z"/><path class="cls-3" d="M100.21,180.05V151.22h4.22v12.13h13.68V151.22h4.21v28.83h-4.21V166.92H104.43v13.13Z"/><path class="cls-3" d="M132.66,151.22h4.21v17c0,3,.57,5.2,1.7,6.5s2.94,1.94,5.44,1.94,4.28-.72,5.43-2.17a9,9,0,0,0,1.71-5.73V151.22h4.22v17.45q0,5.82-3,8.63T144,180.1q-5.35,0-8.35-2.78t-3-8.88Z"/><path class="cls-3" d="M173.81,151.22h3.75l11.49,28.83h-4.39l-3.16-8H169.64l-3.11,8h-4.35Zm-3,17.48h9.47l-1.92-5c-.52-1.32-1-2.58-1.42-3.8s-.85-2.47-1.28-3.76h-.09c-.43,1.29-.87,2.52-1.33,3.71s-.94,2.47-1.46,3.85Z"/><path class="cls-3" d="M204.29,151.17a23.52,23.52,0,0,1,4.07.35,15,15,0,0,1,3.89,1.26l-1,3.74A18,18,0,0,0,207.7,155a11.72,11.72,0,0,0-3.23-.45,6.83,6.83,0,0,0-4.12,1.11,3.68,3.68,0,0,0-1.51,3.12A3.48,3.48,0,0,0,200,161.5a9.44,9.44,0,0,0,3.68,1.78l2.88.89a10.88,10.88,0,0,1,5.56,3.27,7.31,7.31,0,0,1,1.63,4.65,7.18,7.18,0,0,1-.76,3.32,7.31,7.31,0,0,1-2.1,2.53,9.7,9.7,0,0,1-3.18,1.6,13.54,13.54,0,0,1-4,.56,26.28,26.28,0,0,1-4.46-.39,17.64,17.64,0,0,1-4.51-1.44l1-3.35a19,19,0,0,0,3.84,1.36,17.37,17.37,0,0,0,3.94.43,7.68,7.68,0,0,0,4.21-1.11,3.66,3.66,0,0,0,1.74-3.29,4.52,4.52,0,0,0-.25-1.49,3.66,3.66,0,0,0-.87-1.31,6.6,6.6,0,0,0-1.67-1.16,16.19,16.19,0,0,0-2.66-1l-2.88-.89a11.68,11.68,0,0,1-4.85-2.67,6.21,6.21,0,0,1-1.7-4.59,7.32,7.32,0,0,1,2.5-5.85Q199.53,151.17,204.29,151.17Z"/><path class="cls-3" d="M230.33,151.22h3.76l11.48,28.83h-4.39l-3.16-8H226.17l-3.11,8h-4.35Zm-3,17.48h9.48l-1.93-5c-.52-1.32-1-2.58-1.42-3.8s-.85-2.47-1.28-3.76h-.09c-.43,1.29-.87,2.52-1.33,3.71l-1.46,3.85Z"/></svg>