<svg id="Capa_1" data-name="Capa 1" xmlns="http://www.w3.org/2000/svg" viewBox="0 0 290.68 40.48"><defs><style>.cls-1{fill:#424849;}.cls-2{fill:#c8002d;}.cls-3{fill:#3c4647;}</style></defs><title>logo-ileben-grupo-inmobiliario</title><path class="cls-1" d="M62.4,33.47A5.33,5.33,0,0,0,63,36.24a2.76,2.76,0,0,0,2.58,1.07c.49,0,.95,0,1.37-.06A4.92,4.92,0,0,0,68.26,37l.17,2.83a11.43,11.43,0,0,1-3.73.56A5.56,5.56,0,0,1,60,38.47a7.62,7.62,0,0,1-1.46-4.78V0h2.26A1.57,1.57,0,0,1,62.4,1.56Z"/><path class="cls-1" d="M82.43,15.26a6.92,6.92,0,0,0-3.36.79A7.81,7.81,0,0,0,76.6,18.1,9.57,9.57,0,0,0,75.05,21a11.44,11.44,0,0,0-.6,3.28H89.14a9.88,9.88,0,0,0-1.32-6.43,6,6,0,0,0-5.39-2.56m.17-2.88a11,11,0,0,1,4.62.88,8.7,8.7,0,0,1,3.18,2.4,9.73,9.73,0,0,1,1.84,3.56,16.1,16.1,0,0,1,.57,4.35,21,21,0,0,1-.34,3.73h-18q.06,4.95,2.41,7.54t7.06,2.58a18.62,18.62,0,0,0,4.24-.48,20.2,20.2,0,0,0,2-.56,1.65,1.65,0,0,1,2.17,1.17l.21,1a20,20,0,0,1-4.16,1.41,21.77,21.77,0,0,1-4.84.55,14,14,0,0,1-5.71-1.08,10.88,10.88,0,0,1-4-3A12.72,12.72,0,0,1,71.35,32a18.58,18.58,0,0,1-.8-5.51,18.37,18.37,0,0,1,.83-5.63,13.71,13.71,0,0,1,2.38-4.46,10.58,10.58,0,0,1,3.79-2.94,11.73,11.73,0,0,1,5-1"/><path class="cls-1" d="M109.78,15.43a9.68,9.68,0,0,0-4.08.88,12.79,12.79,0,0,0-3.21,2.08V36.57a14.77,14.77,0,0,0,5.45.85q5.06,0,7.63-3a12.08,12.08,0,0,0,2.58-8.12,17.82,17.82,0,0,0-.48-4.24,10.51,10.51,0,0,0-1.52-3.43,7.38,7.38,0,0,0-2.61-2.33,7.82,7.82,0,0,0-3.76-.86M98.65,0h2.24a1.58,1.58,0,0,1,1.6,1.57v14a10,10,0,0,1,3.3-2.21,11.76,11.76,0,0,1,4.85-1,10.6,10.6,0,0,1,4.76,1A10.36,10.36,0,0,1,119,16.31a12.93,12.93,0,0,1,2.23,4.38,18.61,18.61,0,0,1,.78,5.48,17.32,17.32,0,0,1-.92,5.74,12.26,12.26,0,0,1-2.73,4.52,12.44,12.44,0,0,1-4.41,3,15.59,15.59,0,0,1-6,1.08,24.1,24.1,0,0,1-9.29-1.76Z"/><path class="cls-1" d="M138.59,15.26a6.88,6.88,0,0,0-3.35.79,7.81,7.81,0,0,0-2.47,2.05A9.35,9.35,0,0,0,131.22,21a11.11,11.11,0,0,0-.6,3.28H145.3A9.88,9.88,0,0,0,144,17.82c-1.1-1.7-2.9-2.56-5.39-2.56m.17-2.88a11,11,0,0,1,4.62.88,8.82,8.82,0,0,1,3.19,2.4,9.56,9.56,0,0,1,1.83,3.56,16.1,16.1,0,0,1,.58,4.35,21.07,21.07,0,0,1-.35,3.73h-18c0,3.3.84,5.81,2.41,7.54s3.92,2.58,7.05,2.58a18.71,18.71,0,0,0,4.25-.48c.69-.16,1.35-.35,2-.56a1.64,1.64,0,0,1,2.16,1.17l.22,1a20.24,20.24,0,0,1-4.16,1.41,21.86,21.86,0,0,1-4.85.55A14,14,0,0,1,134,39.4a10.93,10.93,0,0,1-4-3A12.56,12.56,0,0,1,127.52,32a18.26,18.26,0,0,1-.8-5.51,18.07,18.07,0,0,1,.83-5.63,13.52,13.52,0,0,1,2.38-4.46,10.42,10.42,0,0,1,3.79-2.94,11.71,11.71,0,0,1,5-1"/><path class="cls-1" d="M155.26,39.91V13h1.94a1.65,1.65,0,0,1,1.67,1.64v2.26a11.57,11.57,0,0,1,3.93-3.31,11.15,11.15,0,0,1,5.14-1.16,8.4,8.4,0,0,1,4.33,1.07,9,9,0,0,1,3,2.89A12.64,12.64,0,0,1,177,20.55a22.42,22.42,0,0,1,.55,5.06v14.3h-3.85v-14a23.16,23.16,0,0,0-.34-4.15,9.91,9.91,0,0,0-1.15-3.28,5.69,5.69,0,0,0-2.12-2.15,6.43,6.43,0,0,0-3.27-.76,7.93,7.93,0,0,0-4.39,1.27,13.78,13.78,0,0,0-3.3,2.91V39.91Z"/><rect class="cls-2" x="26.53" y="0.05" width="16.84" height="16.59"/><path class="cls-2" d="M18.06,25V.33A21.17,21.17,0,0,0,0,21.24V40.42H21.58A21.72,21.72,0,0,0,42.52,25Z"/><path class="cls-3" d="M195.78,13a9.38,9.38,0,0,1,1.71.15,5.64,5.64,0,0,1,1.47.47l-.24,1.17a8.2,8.2,0,0,0-1.43-.44,7.47,7.47,0,0,0-1.49-.16,4.19,4.19,0,0,0-3.12,1.16,4.5,4.5,0,0,0-1.13,3.28,4.3,4.3,0,0,0,1.07,3.13,4.29,4.29,0,0,0,3.21,1.09,7.13,7.13,0,0,0,1-.07,6.94,6.94,0,0,0,.89-.18V19.1h1.34v4.29a7.19,7.19,0,0,1-1.55.43,11,11,0,0,1-1.88.17,6.62,6.62,0,0,1-2.35-.39,5,5,0,0,1-1.76-1.1,4.73,4.73,0,0,1-1.09-1.7,6.18,6.18,0,0,1-.38-2.19,6.47,6.47,0,0,1,.39-2.29,5,5,0,0,1,1.13-1.78,5,5,0,0,1,1.79-1.16A6.41,6.41,0,0,1,195.78,13Z"/><path class="cls-3" d="M203,23.8h-1.47V13.16h2.76a6.35,6.35,0,0,1,1.61.19,4.27,4.27,0,0,1,1.3.57,2.73,2.73,0,0,1,.88.94,2.64,2.64,0,0,1,.32,1.3,2.83,2.83,0,0,1-.71,1.92,4.07,4.07,0,0,1-2,1.18l3.75,4.54h-1.8l-3.47-4.28H203Zm3.93-7.61a1.56,1.56,0,0,0-.22-.85,1.61,1.61,0,0,0-.58-.58,3,3,0,0,0-.85-.32,4.65,4.65,0,0,0-1-.1H203v4h.73a5.6,5.6,0,0,0,1.26-.13,3,3,0,0,0,1-.39,1.9,1.9,0,0,0,.68-.67A1.77,1.77,0,0,0,206.89,16.19Z"/><path class="cls-3" d="M217.55,13.16H219V20a4.49,4.49,0,0,1-.27,1.56,3.76,3.76,0,0,1-.8,1.26,3.69,3.69,0,0,1-1.31.84,4.9,4.9,0,0,1-1.79.3,5,5,0,0,1-1.8-.3,3.56,3.56,0,0,1-1.3-.84,3.47,3.47,0,0,1-.8-1.26,4.49,4.49,0,0,1-.27-1.56V13.16h1.47v6.93a2.76,2.76,0,0,0,.68,1.95,3.1,3.1,0,0,0,4,0,2.81,2.81,0,0,0,.68-1.95Z"/><path class="cls-3" d="M228.16,16.27a2.81,2.81,0,0,1-.34,1.39,3.07,3.07,0,0,1-.93,1,4.33,4.33,0,0,1-1.42.66,6.17,6.17,0,0,1-1.75.24H223v4.2h-1.47V13.16h2.57a6.35,6.35,0,0,1,1.61.19,4,4,0,0,1,1.29.58,2.82,2.82,0,0,1,.87,1A2.93,2.93,0,0,1,228.16,16.27Zm-1.47,0a1.75,1.75,0,0,0-.21-.89,1.69,1.69,0,0,0-.57-.59,2.41,2.41,0,0,0-.85-.34,4.8,4.8,0,0,0-1-.1H223v4.07h.78a4.39,4.39,0,0,0,1.18-.14,3.11,3.11,0,0,0,.92-.42,2,2,0,0,0,.61-.68A1.94,1.94,0,0,0,226.69,16.26Z"/><path class="cls-3" d="M234.34,24a5.24,5.24,0,0,1-2.22-.45,4.68,4.68,0,0,1-1.63-1.19,5.27,5.27,0,0,1-1-1.76,6.72,6.72,0,0,1,0-4.22,5.17,5.17,0,0,1,1-1.76,4.83,4.83,0,0,1,1.63-1.2,5.82,5.82,0,0,1,4.44,0,4.74,4.74,0,0,1,1.63,1.2,5.17,5.17,0,0,1,1,1.76,6.72,6.72,0,0,1,0,4.22,5.27,5.27,0,0,1-1,1.76,4.59,4.59,0,0,1-1.63,1.19A5.24,5.24,0,0,1,234.34,24Zm0-1.18a3.57,3.57,0,0,0,1.61-.34,3.22,3.22,0,0,0,1.17-.92,4.23,4.23,0,0,0,.7-1.39,5.69,5.69,0,0,0,.24-1.68,5.8,5.8,0,0,0-.24-1.69,4.13,4.13,0,0,0-.7-1.37,3.35,3.35,0,0,0-1.17-.93,4,4,0,0,0-3.22,0,3.35,3.35,0,0,0-1.17.93,4.13,4.13,0,0,0-.7,1.37,5.8,5.8,0,0,0-.24,1.69,5.69,5.69,0,0,0,.24,1.68,4.23,4.23,0,0,0,.7,1.39,3.22,3.22,0,0,0,1.17.92A3.6,3.6,0,0,0,234.34,22.81Z"/><path class="cls-3" d="M192.22,39.78h-1.47V29.14h1.47Z"/><path class="cls-3" d="M202.22,39.78l-6-8.36v8.36h-1.4V29.14h1.4l6,8.35V29.14h1.41V39.78Z"/><path class="cls-3" d="M215.31,29.14h1.33l.76,10.64H216l-.52-8.29-3.06,6.37h-1.51l-3.06-6.37-.51,8.29h-1.41l.77-10.64H208l3.65,7.52Z"/><path class="cls-3" d="M224.34,40a5.24,5.24,0,0,1-2.22-.45,4.61,4.61,0,0,1-1.63-1.2,5.13,5.13,0,0,1-1-1.75,6.54,6.54,0,0,1,0-4.22,5.17,5.17,0,0,1,1-1.76,4.74,4.74,0,0,1,1.63-1.2,5.7,5.7,0,0,1,4.44,0,4.83,4.83,0,0,1,1.63,1.2,5.34,5.34,0,0,1,1,1.76,6.72,6.72,0,0,1,0,4.22,5.3,5.3,0,0,1-1,1.75,4.7,4.7,0,0,1-1.63,1.2A5.24,5.24,0,0,1,224.34,40Zm0-1.18a3.63,3.63,0,0,0,1.61-.34,3.22,3.22,0,0,0,1.17-.92,4.23,4.23,0,0,0,.7-1.39,5.73,5.73,0,0,0,.24-1.68,5.8,5.8,0,0,0-.24-1.69,4,4,0,0,0-.7-1.37,3.35,3.35,0,0,0-1.17-.93,4,4,0,0,0-3.23,0,3.41,3.41,0,0,0-1.16.93,4.05,4.05,0,0,0-.71,1.37,5.8,5.8,0,0,0-.24,1.69,5.73,5.73,0,0,0,.24,1.68,4.25,4.25,0,0,0,.71,1.39,3.27,3.27,0,0,0,1.16.92A3.64,3.64,0,0,0,224.34,38.79Z"/><path class="cls-3" d="M238.67,36.8a2.49,2.49,0,0,1-.3,1.21,2.59,2.59,0,0,1-.84.94,3.91,3.91,0,0,1-1.3.61,6,6,0,0,1-1.69.22h-3V29.14h3.3a5.23,5.23,0,0,1,1.41.18,3.26,3.26,0,0,1,1.09.53,2.41,2.41,0,0,1,.71.82,2.32,2.32,0,0,1,.25,1,2.11,2.11,0,0,1-.62,1.55,3.74,3.74,0,0,1-1.58.95,3.63,3.63,0,0,1,1.88.88A2.2,2.2,0,0,1,238.67,36.8Zm-4.38-3.09a4.19,4.19,0,0,0,1-.13,2.73,2.73,0,0,0,.81-.36,1.83,1.83,0,0,0,.54-.57,1.61,1.61,0,0,0,.19-.76,1.33,1.33,0,0,0-.6-1.19,2.74,2.74,0,0,0-1.56-.4h-1.76v3.41Zm3,3a1.55,1.55,0,0,0-.22-.84,1.79,1.79,0,0,0-.61-.58,3,3,0,0,0-.9-.35,5.37,5.37,0,0,0-1.09-.11h-1.51v3.74h1.7a3.39,3.39,0,0,0,1.92-.47A1.53,1.53,0,0,0,237.26,36.75Z"/><path class="cls-3" d="M242.17,39.78H240.7V29.14h1.47Z"/><path class="cls-3" d="M246.28,29.14v9.44h4.44v1.2h-5.91V29.14Z"/><path class="cls-3" d="M253.9,39.78h-1.47V29.14h1.47Z"/><path class="cls-3" d="M265.61,39.78h-1.5l-1-2.57h-5l-1,2.57H255.7l4.24-10.64h1.44Zm-7-3.76h4.09l-2-5.54Z"/><path class="cls-3" d="M268.81,39.78h-1.47V29.14h2.76a6.35,6.35,0,0,1,1.61.19,4.26,4.26,0,0,1,1.3.56,3,3,0,0,1,.88.95,2.64,2.64,0,0,1,.32,1.3,2.85,2.85,0,0,1-.71,1.92,4.07,4.07,0,0,1-2,1.18l3.75,4.54h-1.8L270,35.5h-1.18Zm3.93-7.61a1.56,1.56,0,0,0-.22-.85,1.69,1.69,0,0,0-.58-.58,3.06,3.06,0,0,0-.85-.32,4.65,4.65,0,0,0-1-.1h-1.28v4h.73a5.6,5.6,0,0,0,1.26-.13,3.13,3.13,0,0,0,1-.39,2.08,2.08,0,0,0,.68-.67A1.86,1.86,0,0,0,272.74,32.17Z"/><path class="cls-3" d="M278.22,39.78h-1.47V29.14h1.47Z"/><path class="cls-3" d="M285.49,40a5.24,5.24,0,0,1-2.22-.45,4.61,4.61,0,0,1-1.63-1.2,5.13,5.13,0,0,1-1-1.75,6.54,6.54,0,0,1,0-4.22,5.17,5.17,0,0,1,1-1.76,4.74,4.74,0,0,1,1.63-1.2,5.7,5.7,0,0,1,4.44,0,4.83,4.83,0,0,1,1.63,1.2,5.34,5.34,0,0,1,1,1.76,6.72,6.72,0,0,1,0,4.22,5.3,5.3,0,0,1-1,1.75,4.7,4.7,0,0,1-1.63,1.2A5.24,5.24,0,0,1,285.49,40Zm0-1.18a3.63,3.63,0,0,0,1.61-.34,3.22,3.22,0,0,0,1.17-.92,4.23,4.23,0,0,0,.7-1.39,5.73,5.73,0,0,0,.24-1.68,5.8,5.8,0,0,0-.24-1.69,4,4,0,0,0-.7-1.37,3.35,3.35,0,0,0-1.17-.93,4,4,0,0,0-3.23,0,3.41,3.41,0,0,0-1.16.93,4.05,4.05,0,0,0-.71,1.37,5.8,5.8,0,0,0-.24,1.69,5.73,5.73,0,0,0,.24,1.68,4.25,4.25,0,0,0,.71,1.39,3.27,3.27,0,0,0,1.16.92A3.64,3.64,0,0,0,285.49,38.79Z"/></svg>