<svg id="Capa_1" data-name="Capa 1" xmlns="http://www.w3.org/2000/svg" xmlns:xlink="http://www.w3.org/1999/xlink" viewBox="0 0 814.6 681.21"><defs><style>.cls-1{fill:none;}.cls-2{fill:#efefef;}.cls-3{fill:#dfe0e1;}.cls-4{clip-path:url(#clip-path);}.cls-5{fill:#b3c4e6;}.cls-6{fill:#fff;}.cls-7{fill:#8aa15e;}.cls-21,.cls-8,.cls-9{font-size:9.85px;font-family:OpenSans-Light, Open Sans;font-weight:300;}.cls-13,.cls-21,.cls-8,.cls-9{fill:#414a49;}.cls-11,.cls-8{letter-spacing:-0.02em;}.cls-10{letter-spacing:-0.02em;}.cls-12{letter-spacing:-0.03em;}.cls-14{letter-spacing:-0.06em;}.cls-15{letter-spacing:-0.04em;}.cls-16{letter-spacing:-0.03em;}.cls-17{letter-spacing:0em;}.cls-18{letter-spacing:-0.05em;}.cls-19{letter-spacing:-0.03em;}.cls-20{letter-spacing:-0.04em;}.cls-21{letter-spacing:-0.02em;}.cls-22{fill:#45423f;}</style><clipPath id="clip-path"><rect class="cls-1" width="814.6" height="681.21"/></clipPath></defs><title>mapa-la-huasa</title><rect class="cls-2" x="-244.09" y="-244" width="1920" height="1158"/><rect class="cls-3" width="814.6" height="681.21"/><g class="cls-4"><path class="cls-5" d="M166.76,695.72l-5.4-13.89c26.86-4.18,183.44-51.69,215.13-67.32,12.3-6.06,33.29-7.1,50.77-11.8,27.57-7.42,32.68-11.51,33.43-12.26,5.12-5.12,24.24-7.46,56.27-16,22-5.86,49.79-16.74,59.3-16.74,13.79,0,35.91-5.73,39.82-7.69,3-2,9.62-3.84,36-10,5.83-1.36,11.35-2.65,15.52-3.69,3.09-.77,6.78-1.81,11-3,15.93-4.49,37.76-10.63,56.35-10.63,20.9,0,31.66,1.7,40.56-4.66,8.43-6,28.26-23.66,45.89-23.66h35v14.91h-35c-10.88,0-27.22,8.9-38.89,17.24S759.25,537.6,735,537.6c-16.53,0-35.26-.24-50.36,4-4.37,1.23-23.26,11.55-29.16,12.93-10.5,2.45-28,6.54-31.31,8-6.42,4-33.12,10.07-47.9,10.07-5.75,0-27.87,4.29-54.94,11.46-32.21,8.53-47.6,14.8-50.13,16.95-5.58,5.55-20.65,17.51-91.39,32.36-27.25,5.72-211.88,61.87-213,62.33"/><rect class="cls-6" x="537.73" y="-14.84" width="14.9" height="708.74" transform="translate(-61.44 128.55) rotate(-12.74)"/><path class="cls-6" d="M60.92,168.53,59,153.75c53.57-6.91,796.4-102.08,803.9-103l1.89,14.78c-7.49,1-750.32,96.14-803.89,103"/><polygon class="cls-6" points="382.23 541.4 374.96 528.39 563.32 423.11 564.56 422.89 840.18 374.42 842.76 389.1 568.38 437.35 382.23 541.4"/><polygon class="cls-6" points="748.26 398.42 693.52 181.85 721.58 -6.67 728.95 -5.58 701.11 181.47 755.49 396.6 748.26 398.42"/><path class="cls-6" d="M458.27,691.55,367.32,520.07l-.1-.27c-.2-.46-5.72-12.95-24.6-22.39-18-9-51.75-16.63-110.6-2-65,16.15-95.29,17.77-111.9,6-12.12-8.6-15-23-16.21-36-.57-6.09-3.16-8.62-5.06-10-12.22-8.8-44.81-1.21-66.39,3.81-9.14,2.14-17,4-23.37,4.8-24.8,3.22-40.21-18-51.47-33.44-3.73-5.13-7.25-10-10.18-12.61l10-11.09c4.1,3.69,8.07,9.15,12.28,14.94,10.06,13.83,21.46,29.51,37.48,27.42,5.6-.73,13.53-2.58,21.92-4.53,27.08-6.31,60.77-14.15,78.48-1.39,6.59,4.75,10.35,11.71,11.19,20.69,1.27,13.62,4.26,21.17,10,25.24,12.21,8.66,41.09,6.26,99.67-8.3,51.65-12.84,92.78-11.54,122.25,3.84,21.36,11.15,28.92,26.2,30.18,29l90.64,170.88Z"/><rect class="cls-6" x="6.95" y="588.96" width="616.72" height="14.9" transform="translate(-189.49 148.86) rotate(-20.58)"/><rect class="cls-6" x="205.92" y="613.78" width="641.33" height="14.9" transform="translate(-119.86 125.92) rotate(-12.25)"/><path class="cls-6" d="M530.34,257l-7.44-.53c1.48-21.12,8.21-42.81,19.47-62.72A153.41,153.41,0,0,1,591.25,141c29.39-19.28,79.81-36.84,153.14-11C800.87,150,851.45,172.15,852,172.38l-3,6.82c-.51-.22-50.84-22.25-107.05-42.09-70.46-24.86-118.59-8.2-146.57,10.16-36.5,23.95-62,67-65,109.73"/><path class="cls-6" d="M544.18,322.15l-6.38-3.84a207.31,207.31,0,0,1,27.83-34.76c16.38-16.68,42.89-38.05,76.13-45.17C700.64,225.77,857.38,207.21,859,207l.87,7.41c-1.57.18-158,18.7-216.51,31.24-60.25,12.91-98.76,75.85-99.14,76.48"/><path class="cls-6" d="M397.25,422.79c-18.45,0-33.07-4.88-43.29-14.63-17.58-16.75-20.57-46.1-8.89-87.23l7.17,2c-10.71,37.71-8.34,65.31,6.86,79.8,16.44,15.67,48.4,16.6,90,2.6,47.2-15.88,284-72.36,286.39-72.93l1.73,7.25c-2.38.57-238.86,57-285.74,72.75-20.53,6.9-38.73,10.35-54.22,10.35"/><path class="cls-6" d="M428.34,343.54q-37.59,0-67-9c-49.71-15.29-69.2-46.16-76.8-69.37-8.84-27-6.19-58.89,7.28-87.49s36.23-51,62.62-61.74l5.63,13.8c-48.11,19.61-77.35,81.95-61.36,130.79,9.32,28.48,32.49,49.14,67,59.77,43,13.24,101.4,10.79,173.45-7.28l3.62,14.46c-42.73,10.72-81,16.08-114.46,16.08"/><rect class="cls-6" x="442.64" y="411.6" width="7.45" height="81.67" transform="translate(-81.34 98.22) rotate(-11.52)"/><polygon class="cls-6" points="403.83 335.07 400.13 334.59 415.02 220.75 506.13 168.67 507.98 171.9 418.48 223.06 403.83 335.07"/><rect class="cls-6" x="348.5" y="176.19" width="3.73" height="127.67" transform="translate(77.96 565.85) rotate(-84.52)"/><rect class="cls-6" x="324.01" y="169.83" width="3.73" height="68.95" transform="translate(64.39 486.36) rotate(-79.25)"/><path class="cls-6" d="M256.65,483.72c-.58-2.78-58-278.53-66.84-339.19-8.44-58-59.2-112.7-153.56-104.11L34.9,25.57c47.22-4.29,88.59,6.25,119.62,30.5a133.38,133.38,0,0,1,50,86.31c8.77,60.22,66.1,335.52,66.68,338.3Z"/><path class="cls-6" d="M-22,261.69l-14.57-3.1a183.14,183.14,0,0,1,19.13-48.15c17.26-30.06,40.77-49,68.38-55.24L14.91,2.58,29.41-.85l39.7,168.29L61,168.53c-64.27,8.55-82.8,92.32-83,93.16"/><rect class="cls-6" x="498.6" y="332.51" width="3.73" height="63.3" transform="translate(-64.86 112.2) rotate(-12.02)"/><polygon class="cls-6" points="470.71 404.07 465.49 372.22 452.96 373.33 446.95 336.36 450.63 335.76 456.08 369.31 468.61 368.2 474.39 403.46 470.71 404.07"/><rect class="cls-6" x="415.14" y="335.95" width="3.73" height="83.17" transform="translate(-26.97 32.12) rotate(-4.27)"/><polygon class="cls-6" points="386.11 418.05 382.39 418.05 382.39 371.48 342.02 371.48 342.02 367.75 386.11 367.75 386.11 418.05"/><polygon class="cls-6" points="288.06 212.42 239.72 190.12 224.63 141.4 228.19 140.29 242.78 187.44 289.62 209.03 288.06 212.42"/><path class="cls-6" d="M602.57,489l-1.84-7.22a17.23,17.23,0,1,0-21-12.42l-7.22,1.85a24.69,24.69,0,1,1,30,17.79"/><path class="cls-6" d="M607.66,536a24.72,24.72,0,0,1-23.87-18.58l7.22-1.85a17.23,17.23,0,1,0,12.42-21l-1.84-7.22a24.68,24.68,0,0,1,12.23,47.83,25,25,0,0,1-6.16.78"/><path class="cls-6" d="M483.67,535.67l-3.09-6.78c.72-.34,73-33.63,89.18-65.86l6.66,3.35c-17.38,34.56-89.68,67.88-92.75,69.29"/><path class="cls-6" d="M587.75,498l-.7-7.42.35,3.71-.35-3.71c.27,0,27.67-2.92,43.7-24.27,12.29-16.36,3.8-45.94,3.71-46.23l7.15-2.1c.4,1.36,9.61,33.49-4.9,52.81-18.05,24-47.71,27.09-49,27.21"/><rect class="cls-6" x="153.55" y="149.8" width="7.45" height="345.42" transform="translate(-54.94 33.18) rotate(-10.26)"/><rect class="cls-6" x="79.54" y="159.29" width="7.45" height="295" transform="translate(-47.41 17) rotate(-9.09)"/><rect class="cls-6" x="-39.6" y="312.51" width="298.37" height="7.45" transform="translate(-38.38 16.03) rotate(-7.13)"/><polygon class="cls-6" points="370.44 121.85 355.83 118.94 380.83 -10.49 395.44 -7.58 370.44 121.85"/><rect class="cls-6" x="-16.36" y="615.97" width="616.72" height="14.9" transform="translate(-200.47 142.39) rotate(-20.58)"/><path class="cls-7" d="M253.22,616.47a2.11,2.11,0,0,0-1.38,1.45,4.15,4.15,0,0,0,.26,2.51c.77,2,1.91,2.76,3.44,2.18a7.72,7.72,0,0,0,2.14-1.35l.61,1.62a6.91,6.91,0,0,1-2.33,1.41,4.07,4.07,0,0,1-3.49-.06,5.5,5.5,0,0,1-2.36-3.06,6.27,6.27,0,0,1-.42-2.69,4.08,4.08,0,0,1,.87-2.2,4.73,4.73,0,0,1,2.06-1.42,6.58,6.58,0,0,1,2.9-.36l0,1.8c-.4,0-.79,0-1.18,0a3.46,3.46,0,0,0-1.09.21"/><path class="cls-7" d="M266.9,614.81a5.29,5.29,0,0,1,.19,3.9,5.21,5.21,0,0,1-6.43,2.42,6.38,6.38,0,0,1-2.62-7,4.54,4.54,0,0,1,2.77-2.42,4.49,4.49,0,0,1,3.67,0,5.3,5.3,0,0,1,2.42,3.06m-6.64,2.5a4,4,0,0,0,1.44,2.08,2.18,2.18,0,0,0,2,.12q2.31-.87,1.15-3.94c-.77-2.05-1.93-2.79-3.46-2.21a2.17,2.17,0,0,0-1.44,1.43,4,4,0,0,0,.28,2.52"/><path class="cls-7" d="M274.93,614.11a2.53,2.53,0,0,1-.15,2.28,4.19,4.19,0,0,1-2.21,1.64,6,6,0,0,1-2.78.42l-.68-1.79a11.44,11.44,0,0,0,1.78,0,5.09,5.09,0,0,0,1.23-.27,1.84,1.84,0,0,0,.89-.61.88.88,0,0,0,.06-.85.8.8,0,0,0-.32-.42,1.57,1.57,0,0,0-.6-.24,14,14,0,0,0-1.41-.17,6.08,6.08,0,0,1-1.53-.28,3.29,3.29,0,0,1-1-.59,2.63,2.63,0,0,1-.67-1,2.54,2.54,0,0,1,.1-2.21,3.66,3.66,0,0,1,2-1.54,6.06,6.06,0,0,1,1.41-.35,9.63,9.63,0,0,1,1.53,0l-.06,1.74a9.43,9.43,0,0,0-1.36,0,4,4,0,0,0-1,.24,1.31,1.31,0,0,0-.74.57.89.89,0,0,0,0,.78.92.92,0,0,0,.29.4,1.48,1.48,0,0,0,.52.22,11.61,11.61,0,0,0,1.46.18,5.4,5.4,0,0,1,2.21.56,2.56,2.56,0,0,1,1,1.33"/><polygon class="cls-7" points="281.05 614.69 279.12 615.42 276.29 607.92 273.82 608.85 273.21 607.25 280.09 604.65 280.69 606.26 278.22 607.19 281.05 614.69"/><path class="cls-7" d="M290.5,611.13,289,609.21l-3.32,1.25.16,2.42-2.08.78-.23-10.35,2.36-.89,6.67,7.93ZM288,607.77l-2.29-2.95-.39-.54c.06.58.16,2,.31,4.38Z"/><path class="cls-7" d="M301.8,606.87l-2.45.93-6.56-5.4-.06,0c.54,1.19.91,2,1.1,2.56l1.62,4.28-1.72.65-3.44-9.1,2.44-.92,6.52,5.33.05,0c-.51-1.16-.86-2-1-2.47l-1.63-4.31,1.74-.66Z"/><polygon class="cls-7" points="309.34 604.03 304.1 606.01 300.66 596.9 305.91 594.92 306.5 596.51 303.19 597.75 303.94 599.75 307.02 598.59 307.62 600.18 304.54 601.34 305.42 603.69 308.74 602.44 309.34 604.03"/><path class="cls-7" d="M311.85,599.09l1.32,3.5-1.93.72-3.43-9.1,2.65-1a4.8,4.8,0,0,1,3-.36,2.59,2.59,0,0,1,1.67,1.72,2.55,2.55,0,0,1,.09,1.59,3.16,3.16,0,0,1-.88,1.46q3.21,2.29,4.17,3l-2.14.81-3.49-2.68Zm-.59-1.57.62-.23a2.5,2.5,0,0,0,1.24-.82,1.15,1.15,0,0,0,.07-1.12,1.08,1.08,0,0,0-.79-.76,3,3,0,0,0-1.48.25l-.59.22Z"/><path class="cls-7" d="M325.23,598l-1.47-1.92-3.32,1.25.15,2.42-2.08.78-.23-10.35,2.36-.89,6.67,7.92Zm-2.54-3.36c-1.35-1.74-2.12-2.72-2.29-2.95s-.31-.41-.4-.55c.07.59.17,2.05.31,4.39Z"/><path class="cls-7" d="M339.85,592.53l-2.45.92-6.56-5.39,0,0c.53,1.19.9,2,1.09,2.56l1.62,4.28-1.73.65-3.43-9.1,2.44-.92,6.52,5.33.05,0c-.51-1.16-.86-2-1-2.47l-1.63-4.31,1.74-.66Z"/><path class="cls-7" d="M348.69,584a5.29,5.29,0,0,1,.19,3.9,5.2,5.2,0,0,1-6.43,2.43,5.31,5.31,0,0,1-2.44-3.07,5.23,5.23,0,0,1-.18-3.9,4.5,4.5,0,0,1,2.77-2.41,4.41,4.41,0,0,1,3.67,0,5.35,5.35,0,0,1,2.42,3.05M342,586.49a4.1,4.1,0,0,0,1.45,2.08,2.16,2.16,0,0,0,2,.12q2.31-.87,1.15-3.94t-3.45-2.21a2.18,2.18,0,0,0-1.45,1.43,4.11,4.11,0,0,0,.28,2.52"/><path class="cls-7" d="M352.91,583.62l1.32,3.49-1.93.73-3.44-9.11,2.66-1a5,5,0,0,1,3-.36,2.6,2.6,0,0,1,1.66,1.72,2.52,2.52,0,0,1,.1,1.6,3.18,3.18,0,0,1-.88,1.45q3.21,2.29,4.17,3l-2.14.81-3.49-2.68Zm-.59-1.57.62-.24a2.61,2.61,0,0,0,1.24-.81,1.15,1.15,0,0,0,.07-1.12,1,1,0,0,0-.79-.76,2.85,2.85,0,0,0-1.48.25l-.59.22Z"/><polygon class="cls-7" points="364.23 583.34 362.3 584.07 359.47 576.57 357 577.5 356.39 575.9 363.27 573.3 363.88 574.91 361.4 575.84 364.23 583.34"/><polygon class="cls-7" points="373.35 579.91 368.11 581.88 364.67 572.77 369.92 570.8 370.51 572.38 367.2 573.63 367.95 575.63 371.04 574.47 371.63 576.05 368.55 577.21 369.43 579.56 372.75 578.31 373.35 579.91"/><path class="cls-7" d="M653.16,420l-1.09-2.16-3.49.6-.31,2.41-2.19.37L647.81,411l2.49-.43,5.05,9.05Zm-1.87-3.78c-1-2-1.56-3.07-1.68-3.32s-.23-.46-.29-.61c-.05.58-.22,2-.53,4.36Z"/><path class="cls-7" d="M660.38,408.9l2-.36-1.61,10.16-2.21.38-4.91-9,2-.36,2.79,5.4c.16.32.33.69.52,1.12s.3.73.36.9a16.71,16.71,0,0,1,.13-2.19Z"/><path class="cls-7" d="M664.69,417.06a1.14,1.14,0,0,1,.15-.88,1.23,1.23,0,0,1,.81-.43,1.21,1.21,0,0,1,.89.14,1.13,1.13,0,0,1,.45.78,1.11,1.11,0,0,1-.17.87,1.15,1.15,0,0,1-.78.44,1.23,1.23,0,0,1-.91-.14,1.13,1.13,0,0,1-.44-.78"/><path class="cls-7" d="M674,412.64l.64,3.67-2,.35L671,407.07l2.79-.47a4.81,4.81,0,0,1,3,.21,2.56,2.56,0,0,1,1.31,2,2.51,2.51,0,0,1-.21,1.58,3,3,0,0,1-1.14,1.26l3.54,3.7-2.25.38-2.93-3.28Zm-.28-1.66.65-.11a2.5,2.5,0,0,0,1.37-.57,1.18,1.18,0,0,0,.29-1.09,1.07,1.07,0,0,0-.64-.89,2.9,2.9,0,0,0-1.5,0l-.62.11Z"/><path class="cls-7" d="M687.35,414.13,686.26,412l-3.49.6-.31,2.41-2.19.38L682,405.13l2.48-.43,5.06,9.05Zm-1.87-3.79L683.79,407c-.13-.26-.22-.46-.28-.61,0,.58-.23,2-.53,4.36Z"/><path class="cls-7" d="M696.9,402.61l1.07,6.2a3.72,3.72,0,0,1-.15,1.95,3.18,3.18,0,0,1-1.17,1.46,4.92,4.92,0,0,1-2,.79,4.18,4.18,0,0,1-3-.45,3.46,3.46,0,0,1-1.47-2.42L689,404l2-.35,1,5.87a2.48,2.48,0,0,0,.73,1.55,2.34,2.34,0,0,0,2.92-.5,2.51,2.51,0,0,0,.16-1.72l-1-5.85Zm-5.19.1,0-.18a18.6,18.6,0,0,0,1.2-2.24l2.24-.38,0,.14c-.18.26-.52.67-1,1.21s-.84.95-1.11,1.22Z"/><polygon class="cls-7" points="700.9 411.79 699.25 402.2 701.28 401.85 702.65 409.76 706.54 409.09 706.83 410.77 700.9 411.79"/><polygon class="cls-7" points="711.98 409.88 710.33 400.29 712.36 399.94 713.73 407.85 717.62 407.19 717.9 408.86 711.98 409.88"/><path class="cls-7" d="M725.44,407.56l-1.09-2.16-3.49.6-.31,2.41-2.18.37,1.72-10.21,2.49-.43,5,9.05Zm-1.87-3.78c-1-2-1.56-3.07-1.69-3.32s-.22-.46-.28-.61c-.05.58-.22,2-.53,4.36Z"/><path class="cls-7" d="M727.19,397.39l3-.51a5.68,5.68,0,0,1,3.06.07,2,2,0,0,1,1.24,1.68,2.31,2.31,0,0,1-.16,1.48,1.58,1.58,0,0,1-1,.85l0,.07a2.14,2.14,0,0,1,1.44.53,2.52,2.52,0,0,1,.66,1.41,2.49,2.49,0,0,1-.59,2.21,4.14,4.14,0,0,1-2.45,1.18l-3.59.62Zm2.69,3.45,1.18-.21a2.1,2.1,0,0,0,1.15-.46,1,1,0,0,0,.22-.91.87.87,0,0,0-.54-.72,2.64,2.64,0,0,0-1.31,0l-1.07.19Zm.27,1.61.43,2.5,1.33-.23a1.94,1.94,0,0,0,1.18-.53,1.19,1.19,0,0,0,.23-1.05c-.13-.8-.77-1.1-1.91-.91Z"/><path class="cls-7" d="M736.21,395.84l3-.52a5.89,5.89,0,0,1,3.06.07,2.07,2.07,0,0,1,1.24,1.69,2.32,2.32,0,0,1-.16,1.48,1.67,1.67,0,0,1-1,.85v.06a2.13,2.13,0,0,1,1.45.54,2.52,2.52,0,0,1,.66,1.41,2.47,2.47,0,0,1-.6,2.21,4.17,4.17,0,0,1-2.45,1.18l-3.58.61Zm2.69,3.44,1.18-.2a2.22,2.22,0,0,0,1.16-.46,1,1,0,0,0,.22-.91.84.84,0,0,0-.54-.72,2.56,2.56,0,0,0-1.32,0l-1.07.18Zm.28,1.62.43,2.5,1.32-.23a2,2,0,0,0,1.19-.54,1.19,1.19,0,0,0,.23-1.05c-.14-.79-.78-1.1-1.91-.9Z"/><path class="cls-7" d="M752.41,402.92l-5.52.95-1.65-9.59,5.52-.95.29,1.67-3.49.6.36,2.1,3.25-.55.29,1.66-3.25.56.43,2.47,3.49-.6Zm-5.73-9.68,0-.18a18.66,18.66,0,0,0,1.2-2.23l2.25-.39,0,.14c-.19.26-.52.67-1,1.21s-.84.95-1.12,1.22Z"/><path class="cls-7" d="M153.79,499.9a2.06,2.06,0,0,0-1.6,1.2,4,4,0,0,0-.17,2.51c.41,2.13,1.41,3.05,3,2.74a7.76,7.76,0,0,0,2.35-1l.32,1.7a6.87,6.87,0,0,1-2.53,1,4.06,4.06,0,0,1-3.43-.65,5.48,5.48,0,0,1-1.81-3.42,6.19,6.19,0,0,1,0-2.72,4,4,0,0,1,1.23-2,4.74,4.74,0,0,1,2.27-1.06,6.53,6.53,0,0,1,2.93.14l-.34,1.77c-.39-.1-.78-.18-1.16-.24a3.17,3.17,0,0,0-1.11,0"/><path class="cls-7" d="M165.65,505.92l-1.13-2.14-3.48.67-.26,2.4-2.18.43L160.13,497l2.48-.47,5.23,8.94Zm-1.94-3.75c-1-1.94-1.62-3-1.75-3.29s-.23-.45-.3-.6c0,.58-.18,2-.44,4.37Z"/><path class="cls-7" d="M173.09,504.49l-3.75-7.05h-.05c.37,1.51.61,2.52.71,3l.85,4.44-1.81.35-1.84-9.56,2.76-.53,3.67,6.88h0l1-7.77,2.76-.53,1.84,9.56-1.89.36-.87-4.52c0-.22-.09-.46-.13-.75s-.16-1-.34-2.23H176l-1,8Z"/><rect class="cls-7" x="180.73" y="493.01" width="2.06" height="9.73" transform="translate(-90.67 43.23) rotate(-10.87)"/><path class="cls-7" d="M194.57,500.36l-2.57.5-5.55-6.43h-.06c.33,1.26.55,2.16.65,2.71l.86,4.49-1.81.35-1.83-9.55,2.55-.49,5.53,6.35h0c-.31-1.23-.51-2.11-.61-2.62l-.87-4.52,1.83-.35Z"/><path class="cls-7" d="M204.73,493.44a5.24,5.24,0,0,1-.48,3.87,5.17,5.17,0,0,1-6.74,1.3,5.26,5.26,0,0,1-1.88-3.43,5.18,5.18,0,0,1,.48-3.87,4.47,4.47,0,0,1,3.14-1.91,4.41,4.41,0,0,1,3.61.62,5.27,5.27,0,0,1,1.87,3.42m-7,1.34a4.06,4.06,0,0,0,1.07,2.3,2.18,2.18,0,0,0,2,.46q2.43-.46,1.81-3.69t-3-2.77a2.23,2.23,0,0,0-1.67,1.17,4.05,4.05,0,0,0-.14,2.53"/><polygon class="cls-7" points="214.79 496.48 212.77 496.87 211.26 488.99 208.66 489.49 208.34 487.81 215.55 486.42 215.88 488.11 213.28 488.61 214.79 496.48"/><path class="cls-7" d="M224.8,484.64l1.19,6.19a3.5,3.5,0,0,1-.12,1.94,3.11,3.11,0,0,1-1.13,1.49,5,5,0,0,1-2,.83,4.1,4.1,0,0,1-3-.39,3.43,3.43,0,0,1-1.52-2.39L217,486.15l2-.39,1.12,5.85a2.51,2.51,0,0,0,.76,1.54,1.91,1.91,0,0,0,1.57.23,1.85,1.85,0,0,0,1.34-.79,2.54,2.54,0,0,0,.14-1.72L222.78,485Z"/><path class="cls-7" d="M230.3,489.69l.71,3.67-2,.39-1.84-9.55,2.79-.54a4.88,4.88,0,0,1,3,.15,2.91,2.91,0,0,1,1.17,3.57,3.23,3.23,0,0,1-1.12,1.28c1.85,1.87,3.06,3.08,3.61,3.62l-2.25.44-3-3.23Zm-.32-1.64.66-.13a2.5,2.5,0,0,0,1.35-.59,1.15,1.15,0,0,0,.27-1.1,1.09,1.09,0,0,0-.66-.88,3,3,0,0,0-1.5,0l-.61.12Z"/><path class="cls-7" d="M235.72,481.75l0-.18a18.22,18.22,0,0,0,1.16-2.26l2.23-.43,0,.14c-.19.27-.51.68-1,1.23s-.82,1-1.09,1.25Zm2.1,10.3L236,482.5l2-.39,1.83,9.55Z"/><path class="cls-7" d="M247.38,487.46a2.53,2.53,0,0,1-.54,2.22,4.15,4.15,0,0,1-2.45,1.24,6.15,6.15,0,0,1-2.81-.05l-.37-1.88a11.56,11.56,0,0,0,1.76.29,5.07,5.07,0,0,0,1.26-.06,1.76,1.76,0,0,0,1-.45.87.87,0,0,0,.21-.83.9.9,0,0,0-.25-.47,1.84,1.84,0,0,0-.54-.33,12.29,12.29,0,0,0-1.37-.41,5.78,5.78,0,0,1-1.46-.54,2.85,2.85,0,0,1-.87-.75,2.55,2.55,0,0,1-.49-1.12,2.52,2.52,0,0,1,.48-2.16,3.57,3.57,0,0,1,2.23-1.18,5.61,5.61,0,0,1,1.46-.1,11,11,0,0,1,1.51.22l-.35,1.7a10,10,0,0,0-1.35-.19,3.74,3.74,0,0,0-1,.07,1.3,1.3,0,0,0-.83.43.89.89,0,0,0-.17.76.86.86,0,0,0,.21.45,1.59,1.59,0,0,0,.47.3,11.76,11.76,0,0,0,1.42.43,5.07,5.07,0,0,1,2.08.93,2.56,2.56,0,0,1,.8,1.48"/><polygon class="cls-7" points="253.31 489.07 251.28 489.46 249.77 481.59 247.17 482.09 246.85 480.41 254.07 479.02 254.39 480.71 251.79 481.2 253.31 489.07"/><rect class="cls-7" x="256.44" y="478.46" width="2.06" height="9.73" transform="translate(-86.56 57.26) rotate(-10.87)"/><path class="cls-7" d="M264.33,478.65a2.11,2.11,0,0,0-1.61,1.2,4.13,4.13,0,0,0-.17,2.52q.61,3.19,3,2.74a7.78,7.78,0,0,0,2.34-1l.32,1.7a6.88,6.88,0,0,1-2.53,1,4.11,4.11,0,0,1-3.43-.65,5.5,5.5,0,0,1-1.81-3.42,6,6,0,0,1,.05-2.72,3.93,3.93,0,0,1,1.22-2,4.69,4.69,0,0,1,2.27-1,6.51,6.51,0,0,1,2.93.13l-.34,1.78a10,10,0,0,0-1.16-.24,3.37,3.37,0,0,0-1.1,0"/><path class="cls-7" d="M278.09,479.34a5.32,5.32,0,0,1-.48,3.88,5.19,5.19,0,0,1-6.74,1.29,6.35,6.35,0,0,1-1.4-7.3,5.23,5.23,0,0,1,6.75-1.29,5.34,5.34,0,0,1,1.87,3.42m-7,1.34a4.09,4.09,0,0,0,1.08,2.3,2.18,2.18,0,0,0,2,.46c1.61-.31,2.22-1.54,1.8-3.69s-1.42-3.07-3-2.76a2.17,2.17,0,0,0-1.67,1.16,4.11,4.11,0,0,0-.15,2.53"/><path class="cls-7" d="M519.3,247.94l2.11-1.2-.78-3.46-2.42-.18-.49-2.17L528,242.14l.55,2.46-8.77,5.51Zm3.69-2.06,3.23-1.85.59-.32q-.87,0-4.38-.3Z"/><path class="cls-7" d="M530.77,254.59l.45,2L521,255.52l-.49-2.19,8.77-5.36.46,2-5.25,3.05c-.31.18-.68.37-1.1.57s-.71.34-.88.41a16.33,16.33,0,0,1,2.2,0Z"/><path class="cls-7" d="M522.83,259.3a1.14,1.14,0,0,1,.89.11,1.2,1.2,0,0,1,.47.79,1.17,1.17,0,0,1-.1.9,1.11,1.11,0,0,1-.75.48,1.07,1.07,0,0,1-1.36-.89,1.17,1.17,0,0,1,.1-.9,1.11,1.11,0,0,1,.75-.49"/><polygon class="cls-7" points="523.63 267.19 533.12 265.06 533.58 267.07 525.74 268.83 526.61 272.69 524.95 273.06 523.63 267.19"/><path class="cls-7" d="M526.62,280.52l2.11-1.2-.78-3.46-2.41-.18-.49-2.17,10.29,1.21.55,2.46-8.78,5.51Zm3.69-2.06,3.23-1.85.6-.32c-.58,0-2-.12-4.39-.3Z"/><path class="cls-7" d="M534.77,294.13a4.83,4.83,0,0,1-3.9-.53,5.57,5.57,0,0,1-2.11-3.57l-.6-2.69,9.49-2.13.67,3a5.15,5.15,0,0,1-.41,3.88,4.66,4.66,0,0,1-3.14,2.06m-.53-2.08q3.06-.69,2.46-3.39l-.25-1.07L530.27,289l.2.86q.64,2.91,3.77,2.21"/><polygon class="cls-7" points="531.6 302.65 530.37 297.18 539.87 295.05 541.1 300.52 539.45 300.89 538.67 297.43 536.58 297.9 537.31 301.12 535.66 301.49 534.93 298.27 532.49 298.82 533.26 302.28 531.6 302.65"/><polygon class="cls-7" points="533.79 312.41 533.34 310.41 537.44 309.48 536.6 305.72 532.5 306.64 532.05 304.63 541.54 302.5 541.99 304.51 538.27 305.35 539.12 309.11 542.84 308.27 543.29 310.28 533.79 312.41"/><polygon class="cls-7" points="535.56 320.28 534.33 314.81 543.83 312.67 545.06 318.14 543.41 318.51 542.63 315.06 540.55 315.53 541.27 318.74 539.62 319.11 538.9 315.9 536.45 316.45 537.23 319.9 535.56 320.28"/><path class="cls-7" d="M539.91,327.27a2.52,2.52,0,0,1-2.24-.47,4.16,4.16,0,0,1-1.32-2.41,6.12,6.12,0,0,1,0-2.82l1.87-.42a12,12,0,0,0-.24,1.76,4.92,4.92,0,0,0,.1,1.26,1.81,1.81,0,0,0,.48,1,.89.89,0,0,0,.83.19,1,1,0,0,0,.47-.27,1.89,1.89,0,0,0,.31-.55,12.44,12.44,0,0,0,.37-1.38,5.78,5.78,0,0,1,.49-1.48,3.13,3.13,0,0,1,.72-.89,2.73,2.73,0,0,1,1.11-.53,2.54,2.54,0,0,1,2.17.41,3.7,3.7,0,0,1,1.26,2.2,6.09,6.09,0,0,1,.14,1.45,10.79,10.79,0,0,1-.18,1.52l-1.71-.3a10.58,10.58,0,0,0,.15-1.35,4.18,4.18,0,0,0-.09-1,1.34,1.34,0,0,0-.47-.81.86.86,0,0,0-.76-.15.89.89,0,0,0-.44.23,1.36,1.36,0,0,0-.29.48,10.69,10.69,0,0,0-.38,1.42,5.29,5.29,0,0,1-.87,2.11,2.54,2.54,0,0,1-1.45.85"/><path class="cls-7" d="M539,335.4l2.11-1.2-.78-3.46-2.42-.18-.48-2.17,10.28,1.21.56,2.46-8.78,5.5Zm3.69-2.06,3.23-1.86c.25-.14.45-.24.6-.31-.59,0-2.05-.12-4.39-.31Z"/><path class="cls-7" d="M138.83,156l-1-2.21-3.52.45-.41,2.38-2.2.28,2.19-10.12,2.5-.32,4.64,9.27Zm-1.69-3.86-1.54-3.4-.26-.62c-.07.58-.31,2-.72,4.33Z"/><path class="cls-7" d="M146.55,145.18l2.07-.26L146.55,155l-2.24.28L139.82,146l2.07-.26,2.54,5.52c.14.32.3.71.46,1.14s.27.75.32.92a16.67,16.67,0,0,1,.23-2.19Z"/><path class="cls-7" d="M150.48,153.53a1.14,1.14,0,0,1,.19-.87,1.41,1.41,0,0,1,1.72-.21,1.29,1.29,0,0,1,.2,1.65,1.14,1.14,0,0,1-.81.41,1.23,1.23,0,0,1-.89-.19,1.11,1.11,0,0,1-.41-.79"/><path class="cls-7" d="M157.76,156.46a4.62,4.62,0,0,1-1.23,0l-.21-1.71a4.08,4.08,0,0,0,1,0,1.1,1.1,0,0,0,.91-.55,2.35,2.35,0,0,0,.13-1.34l-1.14-9,2.05-.26,1.13,9a3.8,3.8,0,0,1-.45,2.67,2.87,2.87,0,0,1-2.17,1.17"/><path class="cls-7" d="M171.05,147a5.24,5.24,0,0,1-.73,3.83,5.19,5.19,0,0,1-6.82.86,5.34,5.34,0,0,1-1.65-3.55,5.22,5.22,0,0,1,.73-3.83,5.24,5.24,0,0,1,6.82-.85,5.29,5.29,0,0,1,1.65,3.54m-7.05.89a4.06,4.06,0,0,0,.92,2.35,2.17,2.17,0,0,0,1.94.59q2.44-.3,2-3.56c-.27-2.18-1.22-3.16-2.85-3a2.2,2.2,0,0,0-1.74,1.06,4.06,4.06,0,0,0-.31,2.52"/><path class="cls-7" d="M179,148.18a2.53,2.53,0,0,1-.68,2.18,4.15,4.15,0,0,1-2.53,1.08,6.27,6.27,0,0,1-2.8-.23l-.25-1.91a11,11,0,0,0,1.74.41,4.88,4.88,0,0,0,1.26,0,1.68,1.68,0,0,0,1-.39.86.86,0,0,0,.26-.81.82.82,0,0,0-.22-.48,1.65,1.65,0,0,0-.52-.37,11.45,11.45,0,0,0-1.33-.5,5.78,5.78,0,0,1-1.43-.63,3.12,3.12,0,0,1-.82-.8,2.59,2.59,0,0,1-.41-1.16,2.52,2.52,0,0,1,.61-2.12,3.61,3.61,0,0,1,2.31-1,5.5,5.5,0,0,1,1.46,0,10,10,0,0,1,1.49.32l-.46,1.68a8.88,8.88,0,0,0-1.33-.28,4.26,4.26,0,0,0-1,0,1.33,1.33,0,0,0-.86.38.94.94,0,0,0-.22.75.84.84,0,0,0,.19.45,1.32,1.32,0,0,0,.44.34,13.33,13.33,0,0,0,1.39.52,5.19,5.19,0,0,1,2,1.06,2.6,2.6,0,0,1,.7,1.53"/><path class="cls-7" d="M186.67,149.94l-5.56.7L179.89,141l5.56-.7.21,1.68-3.51.44.27,2.12,3.27-.41.21,1.68-3.27.41.31,2.49,3.52-.45ZM181.38,140l0-.18a20.79,20.79,0,0,0,1.3-2.18l2.26-.29,0,.14q-.3.39-1.05,1.17t-1.17,1.17Z"/><path class="cls-7" d="M198.1,148.51l-1-2.21-3.52.44-.42,2.39-2.2.27,2.19-10.12,2.5-.32,4.64,9.27Zm-1.69-3.87-1.54-3.4c-.11-.26-.2-.46-.25-.62-.08.58-.32,2-.72,4.34Z"/><polygon class="cls-7" points="201.53 148.08 200.31 138.42 202.36 138.17 203.36 146.13 207.28 145.64 207.49 147.33 201.53 148.08"/><path class="cls-7" d="M212.25,138.51a2.1,2.1,0,0,0-1.68,1.1,4.06,4.06,0,0,0-.33,2.5q.4,3.22,2.83,2.92a7.58,7.58,0,0,0,2.4-.82l.22,1.72a7,7,0,0,1-2.6.83,4.1,4.1,0,0,1-3.38-.88,5.42,5.42,0,0,1-1.58-3.52,6.14,6.14,0,0,1,.22-2.71,3.91,3.91,0,0,1,1.36-1.93,4.62,4.62,0,0,1,2.33-.91,6.57,6.57,0,0,1,2.91.32l-.45,1.75a9.8,9.8,0,0,0-1.15-.31,3.44,3.44,0,0,0-1.1-.06"/><path class="cls-7" d="M223.7,145.29l-1-2.21-3.52.44-.41,2.39-2.21.28,2.19-10.13,2.5-.31L225.9,145Zm-1.7-3.87c-.91-2-1.42-3.13-1.53-3.39a6.71,6.71,0,0,1-.26-.62c-.08.58-.32,2-.72,4.33Z"/><polygon class="cls-7" points="227.12 144.86 225.9 135.21 227.95 134.95 228.95 142.91 232.87 142.42 233.08 144.11 227.12 144.86"/><path class="cls-7" d="M242.15,138a4.79,4.79,0,0,1-.9,3.83,5.6,5.6,0,0,1-3.76,1.76l-2.73.34-1.22-9.65,3-.38a5.16,5.16,0,0,1,3.83.78,4.67,4.67,0,0,1,1.74,3.32m-2.12.33q-.39-3.12-3.14-2.77l-1.09.14.79,6.28.88-.11c2-.24,2.83-1.43,2.56-3.54"/><polygon class="cls-7" points="250.33 141.94 244.77 142.65 243.56 132.99 249.12 132.29 249.33 133.97 245.81 134.41 246.08 136.53 249.35 136.12 249.56 137.79 246.29 138.21 246.61 140.7 250.12 140.25 250.33 141.94"/><path class="cls-7" d="M263.25,135.32a4.8,4.8,0,0,1-.9,3.83,5.64,5.64,0,0,1-3.76,1.76l-2.73.34-1.21-9.65,3-.39a5.17,5.17,0,0,1,3.82.79,4.62,4.62,0,0,1,1.75,3.32m-2.12.33q-.39-3.12-3.14-2.77l-1.09.14.79,6.28.88-.11c2-.24,2.83-1.43,2.56-3.54"/><path class="cls-7" d="M271.43,139.29l-5.56.7-1.21-9.65,5.56-.7.21,1.68-3.51.44.26,2.12,3.27-.41.21,1.68-3.27.41.31,2.49,3.52-.45Zm-5.28-9.92,0-.18a19.13,19.13,0,0,0,1.3-2.18l2.26-.29,0,.14c-.2.26-.55.65-1,1.17s-.89.91-1.17,1.17Z"/><polygon class="cls-7" points="273.45 139.04 272.23 129.39 274.28 129.13 275.28 137.09 279.2 136.6 279.41 138.29 273.45 139.04"/><path class="cls-7" d="M287,137.34l-1-2.21-3.52.44-.41,2.39-2.21.27,2.19-10.12,2.5-.31,4.64,9.26Zm-1.7-3.87c-.9-2-1.42-3.13-1.53-3.39s-.2-.47-.26-.63c-.07.58-.31,2-.72,4.34Z"/><path class="cls-7" d="M299,135.83l-2.6.33-5.12-6.78h-.05c.24,1.28.4,2.2.47,2.74l.57,4.55-1.83.23-1.22-9.66,2.59-.32,5.1,6.7h.05c-.23-1.25-.37-2.13-.44-2.65l-.57-4.57,1.84-.23Z"/><path class="cls-7" d="M309.57,129.59a5.26,5.26,0,0,1-.73,3.83,5.16,5.16,0,0,1-6.81.85,6.37,6.37,0,0,1-.93-7.37,4.48,4.48,0,0,1,3.26-1.7,4.4,4.4,0,0,1,3.57.85,5.28,5.28,0,0,1,1.64,3.54m-7.05.88a4.13,4.13,0,0,0,.92,2.36,2.17,2.17,0,0,0,1.94.59c1.63-.21,2.32-1.39,2-3.57s-1.22-3.16-2.84-2.95a2.16,2.16,0,0,0-1.74,1,4.05,4.05,0,0,0-.32,2.52"/><polygon class="cls-7" points="532.47 105.79 526.91 106.49 525.69 96.83 531.26 96.13 531.47 97.81 527.95 98.25 528.22 100.37 531.49 99.96 531.7 101.64 528.43 102.05 528.74 104.54 532.26 104.1 532.47 105.79"/><polygon class="cls-7" points="534.48 105.53 533.27 95.88 535.32 95.62 536.32 103.59 540.23 103.1 540.45 104.78 534.48 105.53"/><path class="cls-7" d="M547.22,100.17l.46,3.7-2,.26-1.21-9.65,2.81-.35a4.8,4.8,0,0,1,3,.35,2.55,2.55,0,0,1,1.22,2,2.6,2.6,0,0,1-.28,1.58,3.14,3.14,0,0,1-1.2,1.2q2.6,3,3.37,3.85l-2.27.29L548.31,100ZM547,98.51l.66-.09a2.55,2.55,0,0,0,1.39-.5,1.16,1.16,0,0,0,.34-1.08,1.06,1.06,0,0,0-.6-.91,2.86,2.86,0,0,0-1.5-.11l-.62.08Z"/><path class="cls-7" d="M562.72,97.07a5.28,5.28,0,0,1-.72,3.83,5.19,5.19,0,0,1-6.82.86,5.29,5.29,0,0,1-1.65-3.55,5.23,5.23,0,0,1,.72-3.83,5.25,5.25,0,0,1,6.83-.85,5.33,5.33,0,0,1,1.64,3.54m-7.05.88a4.07,4.07,0,0,0,.93,2.36,2.14,2.14,0,0,0,1.93.59q2.46-.3,2.05-3.56c-.28-2.18-1.23-3.16-2.85-3A2.17,2.17,0,0,0,556,95.44a4,4,0,0,0-.32,2.51"/><path class="cls-7" d="M572.72,95.73a4.77,4.77,0,0,1-.9,3.82,5.58,5.58,0,0,1-3.75,1.77l-2.74.34L564.12,92l3-.38a5.15,5.15,0,0,1,3.83.79,4.61,4.61,0,0,1,1.74,3.32m-2.12.32q-.39-3.1-3.13-2.76l-1.09.13.79,6.29.87-.11q3-.37,2.56-3.55"/><polygon class="cls-7" points="580.9 99.7 575.34 100.4 574.13 90.75 579.69 90.05 579.9 91.73 576.39 92.17 576.65 94.28 579.92 93.88 580.13 95.55 576.86 95.96 577.18 98.45 580.69 98.01 580.9 99.7"/><path class="cls-7" d="M591.07,93.51a5.3,5.3,0,0,1-.72,3.83,5.19,5.19,0,0,1-6.82.86,5.29,5.29,0,0,1-1.65-3.55,5.21,5.21,0,0,1,.73-3.83,4.46,4.46,0,0,1,3.26-1.7,4.39,4.39,0,0,1,3.56.85,5.26,5.26,0,0,1,1.64,3.54m-7,.88a4,4,0,0,0,.92,2.36,2.15,2.15,0,0,0,1.94.59c1.63-.21,2.31-1.39,2-3.56s-1.22-3.16-2.85-3a2.14,2.14,0,0,0-1.74,1.06,4,4,0,0,0-.31,2.51"/><path class="cls-7" d="M225,304.85a2.53,2.53,0,0,1-2.23-.52,4.1,4.1,0,0,1-1.26-2.44,6.18,6.18,0,0,1,0-2.81l1.88-.38a11.27,11.27,0,0,0-.28,1.75,5.56,5.56,0,0,0,.07,1.26,1.8,1.8,0,0,0,.47,1,.88.88,0,0,0,.83.2.81.81,0,0,0,.46-.25,1.71,1.71,0,0,0,.33-.55,13,13,0,0,0,.4-1.37,6,6,0,0,1,.52-1.47,3,3,0,0,1,.74-.87,2.76,2.76,0,0,1,3.28-.05,3.61,3.61,0,0,1,1.21,2.23,5.52,5.52,0,0,1,.11,1.45,10.71,10.71,0,0,1-.21,1.51l-1.7-.33a11.55,11.55,0,0,0,.18-1.35,4.18,4.18,0,0,0-.08-1,1.26,1.26,0,0,0-.44-.82.9.9,0,0,0-.76-.17,1,1,0,0,0-.45.22,1.59,1.59,0,0,0-.3.47,13.24,13.24,0,0,0-.41,1.42,5.28,5.28,0,0,1-.91,2.09,2.55,2.55,0,0,1-1.47.82"/><polygon class="cls-7" points="223.45 310.79 223.04 308.77 230.9 307.18 230.37 304.59 232.06 304.25 233.52 311.45 231.83 311.79 231.31 309.2 223.45 310.79"/><path class="cls-7" d="M225.46,320.69l2.13-1.15-.7-3.48-2.41-.23-.45-2.18,10.26,1.42.5,2.48-8.89,5.32Zm3.73-2,3.27-1.79.6-.3c-.58,0-2-.16-4.38-.4Z"/><path class="cls-7" d="M227,323.44a1.18,1.18,0,0,1,.89.12,1.24,1.24,0,0,1,.45.81,1.19,1.19,0,0,1-.12.89,1.3,1.3,0,0,1-1.63.33,1.15,1.15,0,0,1-.47-.78,1.21,1.21,0,0,1,.12-.9,1.11,1.11,0,0,1,.76-.47"/><path class="cls-7" d="M237.16,329.41l.6,3a5.88,5.88,0,0,1,0,3.06,2,2,0,0,1-1.65,1.29,2.37,2.37,0,0,1-1.49-.11,1.64,1.64,0,0,1-.87-.94l-.07,0a2.11,2.11,0,0,1-.49,1.46,2.55,2.55,0,0,1-1.39.7,2.51,2.51,0,0,1-2.23-.53,4.22,4.22,0,0,1-1.25-2.41l-.72-3.57Zm-5,3.12-2.48.5.27,1.32a2,2,0,0,0,.57,1.17,1.24,1.24,0,0,0,1.06.2c.79-.16,1.07-.81.84-1.94Zm1.61-.33.24,1.18a2.25,2.25,0,0,0,.49,1.13,1,1,0,0,0,.92.2.86.86,0,0,0,.71-.56,2.75,2.75,0,0,0,0-1.31l-.22-1.07Z"/><polygon class="cls-7" points="229.44 340.32 238.98 338.39 239.39 340.41 231.52 342.01 232.3 345.88 230.63 346.21 229.44 340.32"/><path class="cls-7" d="M232.15,353.71l2.13-1.15-.7-3.48-2.41-.23-.45-2.18L241,348.1l.5,2.47-8.9,5.32Zm3.73-2,3.27-1.78c.25-.14.46-.24.61-.31q-.88,0-4.38-.39Z"/><path class="cls-7" d="M234.55,365.55,234,363l6.38-5.61,0-.06c-1.25.34-2.15.57-2.7.67l-4.49.91-.36-1.8,9.53-1.94.52,2.56-6.3,5.59v0q1.83-.46,2.61-.63l4.51-.91.37,1.82Z"/><path class="cls-7" d="M243.85,370.38a2.09,2.09,0,0,0-1.21-1.59,4.07,4.07,0,0,0-2.52-.14q-3.19.64-2.71,3a7.85,7.85,0,0,0,1,2.33l-1.7.34a7.11,7.11,0,0,1-1-2.52,4.09,4.09,0,0,1,.62-3.44,5.44,5.44,0,0,1,3.4-1.84,6.06,6.06,0,0,1,2.72,0,4.08,4.08,0,0,1,2,1.2,4.72,4.72,0,0,1,1.07,2.26,6.5,6.5,0,0,1-.1,2.93l-1.78-.32a9.67,9.67,0,0,0,.23-1.17,3.36,3.36,0,0,0,0-1.1"/><path class="cls-7" d="M238,382.3l2.13-1.15-.71-3.48-2.41-.23-.44-2.18,10.26,1.43.5,2.47-8.89,5.32Zm3.73-2c1.92-1.05,3-1.65,3.27-1.78s.45-.24.6-.31q-.87,0-4.38-.39Z"/><path class="cls-7" d="M624.11,605.19l-1.19-2.11-3.46.78-.18,2.41-2.17.49,1.2-10.28,2.46-.56,5.51,8.78Zm-2.05-3.69c-1.1-1.9-1.72-3-1.86-3.23s-.24-.45-.31-.6c0,.59-.12,2.05-.31,4.39Z"/><path class="cls-7" d="M630.76,593.72l2-.46-1.09,10.22-2.2.49-5.35-8.77,2-.45,3.06,5.25c.17.31.36.67.57,1.09s.34.72.4.88a18.26,18.26,0,0,1,0-2.2Z"/><path class="cls-7" d="M635.48,601.65a1.07,1.07,0,0,1,.11-.88,1.19,1.19,0,0,1,.78-.48,1.22,1.22,0,0,1,.9.1,1.13,1.13,0,0,1,.48.75,1.08,1.08,0,0,1-.12.88,1.37,1.37,0,0,1-1.67.38,1.11,1.11,0,0,1-.48-.75"/><polygon class="cls-7" points="643.37 600.86 641.23 591.36 643.25 590.91 645.01 598.74 648.86 597.87 649.23 599.54 643.37 600.86"/><path class="cls-7" d="M656.69,597.86l-1.19-2.11-3.46.78-.18,2.42-2.17.48,1.2-10.28,2.47-.56,5.5,8.78Zm-2.05-3.69c-1.1-1.9-1.72-3-1.86-3.23s-.24-.45-.31-.6c0,.59-.12,2-.31,4.39Z"/><path class="cls-7" d="M665.07,593.2a2.52,2.52,0,0,1-.47,2.24,4.16,4.16,0,0,1-2.41,1.32,6.26,6.26,0,0,1-2.82,0l-.42-1.87a12.15,12.15,0,0,0,1.77.24,4.84,4.84,0,0,0,1.25-.1,1.77,1.77,0,0,0,1-.48.89.89,0,0,0,.19-.83.83.83,0,0,0-.27-.47,1.89,1.89,0,0,0-.55-.31,12.44,12.44,0,0,0-1.38-.37,5.78,5.78,0,0,1-1.48-.49,3.13,3.13,0,0,1-.89-.72,2.78,2.78,0,0,1-.12-3.28,3.67,3.67,0,0,1,2.2-1.26,6.09,6.09,0,0,1,1.45-.14,10.79,10.79,0,0,1,1.52.18l-.3,1.71a10.58,10.58,0,0,0-1.35-.15,4.18,4.18,0,0,0-1,.09,1.3,1.3,0,0,0-.81.47.86.86,0,0,0-.15.76.81.81,0,0,0,.23.44,1.36,1.36,0,0,0,.48.29,10.69,10.69,0,0,0,1.42.38,5.15,5.15,0,0,1,2.11.87,2.5,2.5,0,0,1,.85,1.45"/><path class="cls-7" d="M673.08,585.81a2.13,2.13,0,0,0-1.57,1.25,4.16,4.16,0,0,0-.08,2.53q.71,3.17,3.09,2.63a7.79,7.79,0,0,0,2.31-1l.38,1.69a6.74,6.74,0,0,1-2.5,1.07,4.09,4.09,0,0,1-3.45-.54,5.48,5.48,0,0,1-1.91-3.36,6.13,6.13,0,0,1-.05-2.72,4,4,0,0,1,1.17-2.05,4.64,4.64,0,0,1,2.23-1.13,6.6,6.6,0,0,1,2.93,0l-.28,1.78a9.5,9.5,0,0,0-1.17-.19,3.35,3.35,0,0,0-1.1,0"/><path class="cls-7" d="M686.86,586.07a5.3,5.3,0,0,1-.36,3.89,4.43,4.43,0,0,1-3.06,2,4.47,4.47,0,0,1-3.64-.51,5.33,5.33,0,0,1-2-3.38,5.22,5.22,0,0,1,.35-3.88,4.54,4.54,0,0,1,3.08-2,4.4,4.4,0,0,1,3.63.51,5.28,5.28,0,0,1,2,3.36m-6.93,1.56a4.07,4.07,0,0,0,1.14,2.26,2.17,2.17,0,0,0,2,.4q2.41-.54,1.69-3.74t-3.12-2.67a2.18,2.18,0,0,0-1.63,1.21,4,4,0,0,0-.07,2.54"/><path class="cls-7" d="M698.32,588.49l-2.56.58L690,582.82H690c.36,1.25.61,2.15.73,2.69l1,4.46-1.8.41-2.14-9.49,2.54-.58,5.72,6.19h.05c-.34-1.22-.57-2.09-.69-2.6l-1-4.49,1.81-.41Z"/><path class="cls-7" d="M707.5,581.35a4.81,4.81,0,0,1-.53,3.89,5.57,5.57,0,0,1-3.57,2.11l-2.69.61-2.14-9.5,3-.67a5.1,5.1,0,0,1,3.88.42,4.62,4.62,0,0,1,2.06,3.14m-2.08.52q-.69-3.06-3.39-2.45l-1.07.24,1.39,6.18.86-.19q2.91-.66,2.21-3.78"/><polygon class="cls-7" points="716.02 584.51 710.55 585.74 708.42 576.25 713.89 575.02 714.26 576.67 710.8 577.45 711.27 579.53 714.49 578.8 714.86 580.46 711.64 581.18 712.19 583.63 715.65 582.85 716.02 584.51"/><path class="cls-7" d="M723,580.17a2.47,2.47,0,0,1-.47,2.23,4.05,4.05,0,0,1-2.4,1.32,6.27,6.27,0,0,1-2.82,0l-.42-1.87a11.87,11.87,0,0,0,1.76.24,4.93,4.93,0,0,0,1.26-.11,1.68,1.68,0,0,0,1-.48.89.89,0,0,0,.18-.83.8.8,0,0,0-.27-.46,1.77,1.77,0,0,0-.55-.32,11.21,11.21,0,0,0-1.37-.36,6.25,6.25,0,0,1-1.49-.5,2.94,2.94,0,0,1-.89-.72,2.81,2.81,0,0,1-.11-3.28,3.59,3.59,0,0,1,2.2-1.25,5.53,5.53,0,0,1,1.45-.14,9.55,9.55,0,0,1,1.52.17l-.3,1.72a9.36,9.36,0,0,0-1.36-.16,4.65,4.65,0,0,0-1,.1,1.31,1.31,0,0,0-.82.46.94.94,0,0,0-.15.77.9.9,0,0,0,.23.43,1.37,1.37,0,0,0,.48.3,13,13,0,0,0,1.43.38,5.22,5.22,0,0,1,2.11.86,2.61,2.61,0,0,1,.84,1.46"/><polygon class="cls-7" points="286.45 262.66 285.09 257.23 294.53 254.87 295.89 260.3 294.25 260.71 293.39 257.28 291.32 257.8 292.12 260.99 290.48 261.4 289.68 258.21 287.25 258.81 288.11 262.25 286.45 262.66"/><polygon class="cls-7" points="287.19 265.1 296.39 261.93 297.07 263.88 289.48 266.5 290.77 270.23 289.16 270.79 287.19 265.1"/><path class="cls-7" d="M295.81,276.53l-3.32,1.7-.94-1.83,8.66-4.44,1.29,2.53a4.88,4.88,0,0,1,.7,2.94,2.87,2.87,0,0,1-3.1,2.12,3.13,3.13,0,0,1-1.54-.71c-1.28,2.3-2.11,3.79-2.47,4.48l-1-2,2.27-3.77Zm1.49-.76.31.59a2.5,2.5,0,0,0,.95,1.14,1.15,1.15,0,0,0,1.12-.05,1.07,1.07,0,0,0,.66-.88,2.89,2.89,0,0,0-.41-1.44l-.28-.56Z"/><path class="cls-7" d="M305.07,289.6a5.3,5.3,0,0,1-3.76,1.08,5.21,5.21,0,0,1-3.83-5.71,5.36,5.36,0,0,1,2.43-3.07,5.22,5.22,0,0,1,3.75-1.07,5.27,5.27,0,0,1,3.83,5.71,5.36,5.36,0,0,1-2.42,3.06m-4-5.9a4.11,4.11,0,0,0-1.69,1.89,2.14,2.14,0,0,0,.35,2q1.37,2.06,4.1.22t1.36-3.87a2.19,2.19,0,0,0-1.72-1.08,4.1,4.1,0,0,0-2.4.85"/><path class="cls-7" d="M311.78,297.34a4.8,4.8,0,0,1-3.68,1.38,5.54,5.54,0,0,1-3.55-2.15l-1.81-2.08,7.35-6.37,2,2.3a5.14,5.14,0,0,1,1.47,3.62,4.6,4.6,0,0,1-1.79,3.3m-1.45-1.58q2.37-2.06.56-4.15l-.72-.83-4.79,4.16.58.66q1.95,2.26,4.37.16"/><polygon class="cls-7" points="313.98 306.26 309.9 302.41 316.58 295.33 320.65 299.18 319.5 300.41 316.92 297.98 315.45 299.54 317.85 301.8 316.69 303.03 314.29 300.76 312.57 302.59 315.15 305.02 313.98 306.26"/><path class="cls-7" d="M325.92,309.55a5.25,5.25,0,0,1-3.21,2.21,5.18,5.18,0,0,1-5.44-4.2,5.31,5.31,0,0,1,1.33-3.68,5.2,5.2,0,0,1,3.22-2.2,5.24,5.24,0,0,1,5.44,4.21,5.3,5.3,0,0,1-1.34,3.66m-5.62-4.34a4.11,4.11,0,0,0-1,2.32,2.17,2.17,0,0,0,1,1.79c1.31,1,2.63.64,4-1.09s1.37-3.1.07-4.1a2.17,2.17,0,0,0-2-.48,4.08,4.08,0,0,0-2,1.56"/></g><text class="cls-8" transform="translate(593.87 209.43) scale(1 1.11)">MALL PORTAL</text><text class="cls-8" transform="translate(593.87 222.38) scale(1 1.11)">LA DEHESA</text><text class="cls-8" transform="translate(528.29 599.13) scale(1 1.11)">HIPER LIDER</text><text class="cls-8" transform="translate(476.69 581.41) scale(1 1.11)">UDD</text><text class="cls-9" transform="translate(435.22 47.46) scale(1 1.11)"><tspan class="cls-10">L</tspan><tspan class="cls-11" x="4.81" y="0">IDER EX</tspan><tspan class="cls-12" x="37.17" y="0">P</tspan><tspan class="cls-11" x="42.68" y="0">RES</tspan><tspan x="58.63" y="0">S</tspan></text><text class="cls-8" transform="translate(15.32 283.31) scale(1 1.11)">UNIMARC</text><g class="cls-4"><path class="cls-13" d="M46.88,197v2.3a1.57,1.57,0,0,1-3.14,0V197H36.31v2.3a1.57,1.57,0,0,1-3.14,0V197H26.58l3.13,21.22H50.15L53.28,197Z"/><path class="cls-13" d="M45.31,200.11a.79.79,0,0,1-.79-.79v-3.08a3.59,3.59,0,0,0-.58-1.76c-.75-1.13-2.1-1.71-4-1.71A4.69,4.69,0,0,0,36.42,194a3.37,3.37,0,0,0-.89,2.25v3.12a.79.79,0,1,1-1.57,0v-3.07a5,5,0,0,1,1.33-3.39,6.14,6.14,0,0,1,4.64-1.66c3.14,0,4.65,1.36,5.37,2.5a5.23,5.23,0,0,1,.79,2.54v3.08a.78.78,0,0,1-.78.79"/></g><text class="cls-8" transform="translate(434.17 81.94) scale(1 1.11)">ES<tspan class="cls-14" x="10.33" y="0">P</tspan><tspan class="cls-15" x="15.46" y="0">A</tspan><tspan x="20.96" y="0">CIO </tspan><tspan class="cls-10" x="38.69" y="0">U</tspan><tspan x="45.53" y="0">R</tspan><tspan class="cls-16" x="51.15" y="0">B</tspan><tspan x="57.02" y="0">AN</tspan><tspan class="cls-17" x="69.56" y="0">O</tspan></text><text class="cls-9" transform="translate(434.17 94.88) scale(1 1.11)"><tspan class="cls-10">L</tspan><tspan class="cls-18" x="4.81" y="0">A</tspan><tspan class="cls-11" x="10.22" y="0" xml:space="preserve"> DE</tspan><tspan class="cls-10" x="24.45" y="0">H</tspan><tspan class="cls-11" x="31.29" y="0">E</tspan><tspan class="cls-19" x="36.49" y="0">S</tspan><tspan x="41.56" y="0">A</tspan></text><g class="cls-4"><path class="cls-13" d="M415.82,71.88v2.4a1.64,1.64,0,1,1-3.27,0v-2.4h-7.77v2.4a1.64,1.64,0,1,1-3.27,0v-2.4h-6.9l3.28,22.17h21.35l3.28-22.17Z"/><path class="cls-13" d="M414.19,75.1a.82.82,0,0,1-.82-.82V71.06a3.86,3.86,0,0,0-.61-1.84c-.79-1.18-2.2-1.78-4.19-1.78a4.91,4.91,0,0,0-3.67,1.22A3.61,3.61,0,0,0,404,71v3.26a.82.82,0,1,1-1.63,0V71.07a5.2,5.2,0,0,1,1.38-3.54,6.45,6.45,0,0,1,4.86-1.73c3.27,0,4.85,1.41,5.6,2.6a5.47,5.47,0,0,1,.83,2.66v3.22a.82.82,0,0,1-.81.82"/><path class="cls-13" d="M580.35,200.62V203a1.64,1.64,0,0,1-3.28,0v-2.41H569.3V203a1.64,1.64,0,0,1-3.27,0v-2.41h-6.9l3.28,22.17h21.35L587,200.62Z"/><path class="cls-13" d="M578.71,203.84a.81.81,0,0,1-.82-.81v-3.22a3.86,3.86,0,0,0-.61-1.84c-.78-1.19-2.19-1.79-4.19-1.79a4.87,4.87,0,0,0-3.67,1.23,3.6,3.6,0,0,0-.94,2.36V203a.82.82,0,0,1-1.64,0v-3.21a5.22,5.22,0,0,1,1.38-3.54,6.45,6.45,0,0,1,4.86-1.74c3.27,0,4.86,1.42,5.61,2.61a5.41,5.41,0,0,1,.83,2.66V203a.82.82,0,0,1-.82.81"/></g><text class="cls-8" transform="translate(493.85 636.35) scale(1 1.11)">SHOPPING</text><text class="cls-8" transform="translate(493.85 649.29) scale(1 1.11)">CANTAGALLO</text><text class="cls-8" transform="translate(624.18 534.7) scale(1 1.11)">LINCOLN</text><text class="cls-8" transform="translate(610.67 547.64) scale(1 1.11)">INT. ACADEMY</text><text class="cls-8" transform="translate(707.7 517.56) scale(1 1.11)">INSTITUTO</text><text class="cls-8" transform="translate(713.36 530.51) scale(1 1.11)">HEBREO</text><g class="cls-4"><path class="cls-13" d="M481.7,627.61V630a1.64,1.64,0,1,1-3.27,0v-2.4h-7.77V630a1.64,1.64,0,0,1-3.28,0v-2.4h-6.89l3.28,22.17h21.35l3.27-22.17Z"/><path class="cls-13" d="M480.06,630.83a.82.82,0,0,1-.82-.82v-3.22a3.74,3.74,0,0,0-.61-1.84c-.78-1.19-2.19-1.79-4.19-1.79a4.9,4.9,0,0,0-3.66,1.23,3.61,3.61,0,0,0-.94,2.36V630a.82.82,0,0,1-1.64,0V626.8a5.27,5.27,0,0,1,1.39-3.54,6.44,6.44,0,0,1,4.85-1.73c3.28,0,4.86,1.41,5.61,2.6a5.47,5.47,0,0,1,.83,2.66V630a.82.82,0,0,1-.82.82"/></g><text class="cls-8" transform="translate(706.56 613.35) scale(1 1.11)">MALL SPORT</text><g class="cls-4"><path class="cls-13" d="M797,598.52v2.4a1.64,1.64,0,1,1-3.27,0v-2.4H786v2.4a1.64,1.64,0,1,1-3.27,0v-2.4h-6.9l3.28,22.16h21.35l3.28-22.16Z"/><path class="cls-13" d="M795.37,601.74a.82.82,0,0,1-.82-.82V597.7a3.81,3.81,0,0,0-.62-1.84c-.78-1.19-2.19-1.79-4.19-1.79a4.9,4.9,0,0,0-3.66,1.23,3.6,3.6,0,0,0-.94,2.36v3.26a.82.82,0,1,1-1.63,0v-3.21a5.17,5.17,0,0,1,1.38-3.54,6.45,6.45,0,0,1,4.85-1.74c3.28,0,4.86,1.42,5.61,2.61a5.41,5.41,0,0,1,.83,2.66v3.22a.82.82,0,0,1-.81.82"/></g><text class="cls-8" transform="translate(61.18 205.77) scale(1 1.11)">MALL VIVO</text><text class="cls-8" transform="translate(61.18 218.71) scale(1 1.11)">LOS TRAPENSES</text><text class="cls-8" transform="translate(58.11 95.47) scale(1 1.11)">COPEC</text><text class="cls-8" transform="translate(148.86 125.05) scale(1 1.11)">RESTAURANTES</text><text class="cls-8" transform="translate(245.17 204.9) scale(1 1.11)">CLINICA </text><text class="cls-8" transform="translate(239.73 217.85) scale(1 1.11)">ALEMANA</text><g class="cls-4"><path class="cls-13" d="M85.72,51l0,.92c2.06,0,1.87,3.68,1.87,3.68H85.17v6.58h1.15c0,8.08-.13,9.64-3.3,9.83V50H69.64V74.46H66.56v2.22H86.09V74.46H83v-1c1.73-.1,3.33-.6,4.08-2.57.65-1.72.65-4.34.65-8.69H88.9V55.64s0-4.6-3.18-4.6M80.49,59.2H72.16V52.08h8.33Z"/></g><text class="cls-8" transform="translate(198.93 201.9) scale(1 1.11)">SHELL</text><g class="cls-4"><path class="cls-13" d="M224.78,157.47l0,1c2.14,0,1.94,3.83,1.94,3.83h-2.48v6.87h1.2c0,8.42-.14,10-3.45,10.24v-23H208v25.49h-3.2v2.32h20.34v-2.32H222v-1c1.81-.11,3.48-.63,4.26-2.68.68-1.79.68-4.52.68-9.05h1.2v-6.87s0-4.79-3.32-4.79m-5.44,8.5h-8.69v-7.41h8.69Z"/></g><text class="cls-8" transform="translate(611.28 398.53) scale(1 1.11)">SHELL</text><g class="cls-4"><path class="cls-13" d="M597.21,381.89l0,1c2.14,0,2,3.84,2,3.84h-2.49v6.86h1.2c0,8.42-.14,10-3.44,10.24v-23H580.45v25.5h-3.2v2.31H597.6V406.3h-3.2v-1c1.8-.1,3.47-.63,4.25-2.68.68-1.79.68-4.53.68-9.05h1.2v-6.86s0-4.8-3.32-4.8m-5.44,8.5h-8.69V383h8.69Z"/><path class="cls-13" d="M126.51,105.1a15.3,15.3,0,1,0,15.3,15.3,15.3,15.3,0,0,0-15.3-15.3m-1.8,14.13a2.4,2.4,0,0,1-1.77,2.15V131.7a1.18,1.18,0,0,1-2.36,0V121.42a2.44,2.44,0,0,1-1.89-2.19v-9.49a.78.78,0,0,1,1.51,0v6.1H121v-6.1a.78.78,0,0,1,1.51,0v6.1h.75v-6.1a.77.77,0,0,1,1.5,0Zm8.74-.44V131.7a1.18,1.18,0,1,1-2.36,0V121.59a2.35,2.35,0,0,1-2.36-2.36V111.4a2.36,2.36,0,0,1,2.36-2.37,23.42,23.42,0,0,1,2.36.12Z"/><path class="cls-13" d="M263.27,153.93a16.28,16.28,0,1,0,16.28,16.28,16.28,16.28,0,0,0-16.28-16.28m10.47,20.25h-6.51v6.52a1.89,1.89,0,0,1-1.89,1.89h-3.77a1.89,1.89,0,0,1-1.88-1.89v-6.52h-6.52a1.88,1.88,0,0,1-1.88-1.88v-3.77a1.88,1.88,0,0,1,1.88-1.88h6.52v-6.52a1.89,1.89,0,0,1,1.88-1.89h3.77a1.89,1.89,0,0,1,1.89,1.89v6.52h6.51a1.88,1.88,0,0,1,1.89,1.88v3.77a1.88,1.88,0,0,1-1.89,1.88"/></g><text class="cls-9" transform="translate(541.84 25.99) scale(1 1.11)"><tspan class="cls-11">C</tspan><tspan class="cls-20" x="5.88" y="0">L</tspan><tspan class="cls-11" x="10.51" y="0">UB DE GO</tspan><tspan class="cls-12" x="54.03" y="0">L</tspan><tspan x="58.84" y="0">F</tspan></text><text class="cls-9" transform="translate(541.84 39.12) scale(1 1.11)"><tspan class="cls-10">L</tspan><tspan class="cls-18" x="4.81" y="0">A</tspan><tspan class="cls-11" x="10.22" y="0" xml:space="preserve"> DE</tspan><tspan class="cls-10" x="24.45" y="0">H</tspan><tspan class="cls-11" x="31.29" y="0">E</tspan><tspan class="cls-19" x="36.49" y="0">S</tspan><tspan x="41.56" y="0">A</tspan></text><g class="cls-4"><path class="cls-13" d="M427,32.3a1.46,1.46,0,0,0-1.13-.54H401.58l-.22-1.26a1.46,1.46,0,0,0-1.44-1.22h-5a1.46,1.46,0,1,0,0,2.92h3.73l2.92,17.39A1.47,1.47,0,0,0,403,50.81H422.5a1.47,1.47,0,0,0,0-2.93H404.28l-.35-2.08h19.74a1.46,1.46,0,0,0,1.43-1.18l2.19-11.11a1.43,1.43,0,0,0-.3-1.21m-3.54,5.6H418.5V34.69h5.58Zm-13.66-3.21h6.76V37.9h-6.76Zm6.76,8.18h-6.76v-3h6.76Zm-8.71-8.18V37.9H402.6l-.53-3.21Zm-4.91,5.16h4.91v3h-4.4Zm15.57,3v-3h4.56l-.6,3Z"/><path class="cls-13" d="M404.48,51.09a2.33,2.33,0,1,0,2.33,2.32,2.32,2.32,0,0,0-2.33-2.32"/><path class="cls-13" d="M421.27,51.09a2.33,2.33,0,1,0,2.32,2.32,2.32,2.32,0,0,0-2.32-2.32"/><path class="cls-13" d="M52.16,242.35a1.45,1.45,0,0,0-1.13-.53H26.74l-.21-1.27a1.47,1.47,0,0,0-1.44-1.22h-5a1.47,1.47,0,1,0,0,2.93h3.73l2.92,17.38a1.46,1.46,0,0,0,1.44,1.22H47.67a1.46,1.46,0,1,0,0-2.92H29.45l-.35-2.09H48.83a1.46,1.46,0,0,0,1.44-1.17l2.2-11.12a1.47,1.47,0,0,0-.31-1.21M48.62,248H43.67v-3.21h5.58ZM35,244.74h6.76V248H35Zm6.76,8.19H35v-3h6.76ZM33,244.74V248H27.77l-.53-3.21ZM28.1,249.9H33v3h-4.4Zm15.57,3v-3h4.56l-.6,3Z"/><path class="cls-13" d="M29.66,261.14A2.33,2.33,0,1,0,32,263.47a2.33,2.33,0,0,0-2.32-2.33"/><path class="cls-13" d="M46.44,261.14a2.33,2.33,0,1,0,2.32,2.33,2.32,2.32,0,0,0-2.32-2.33"/><path class="cls-13" d="M572.23,559.48a1.45,1.45,0,0,0-1.13-.54H546.82l-.21-1.26a1.46,1.46,0,0,0-1.45-1.22h-5a1.46,1.46,0,1,0,0,2.92h3.74l2.91,17.39a1.47,1.47,0,0,0,1.44,1.22h19.46a1.47,1.47,0,0,0,0-2.93H549.52l-.35-2.08h19.74a1.47,1.47,0,0,0,1.44-1.18l2.19-11.11a1.46,1.46,0,0,0-.31-1.21m-3.54,5.6h-4.94v-3.21h5.57ZM555,561.87h6.75v3.2H555Zm6.75,8.18H555v-3h6.75Zm-8.7-8.18v3.21h-5.24l-.54-3.21ZM548.17,567h4.92v3h-4.41Zm15.58,3v-3h4.56l-.6,3Z"/><path class="cls-13" d="M549.73,578.27a2.33,2.33,0,1,0,2.32,2.32,2.32,2.32,0,0,0-2.32-2.32"/><path class="cls-13" d="M566.51,578.27a2.33,2.33,0,1,0,2.32,2.32,2.32,2.32,0,0,0-2.32-2.32"/><polygon class="cls-13" points="525.69 9.54 530.33 17.57 534.97 25.61 525.69 25.61 516.41 25.61 521.05 17.57 525.69 9.54"/><polygon class="cls-13" points="272.55 661.17 267.91 653.13 263.27 645.1 272.55 645.1 281.83 645.1 277.19 653.13 272.55 661.17"/></g><text class="cls-8" transform="translate(603.81 337.86) scale(1 1.11)">RESTAURANTES</text><text class="cls-8" transform="translate(445.03 451.86) scale(1 1.11)">COLEGIO</text><text class="cls-8" transform="translate(434.03 464.81) scale(1 1.11)">LOS ALERCES</text><text class="cls-8" transform="translate(286.81 647.86) scale(1 1.11)">COLEGIOS MAYFLOWER </text><text class="cls-21" transform="translate(286.81 660.8) scale(1 1.11)">Y DUNALASTAIR</text><g class="cls-4"><path class="cls-13" d="M577.58,317.9a15.3,15.3,0,1,0,15.3,15.3,15.3,15.3,0,0,0-15.3-15.3M575.79,332a2.42,2.42,0,0,1-1.77,2.16V344.5a1.19,1.19,0,0,1-2.37,0V334.23a2.45,2.45,0,0,1-1.88-2.2v-9.48a.77.77,0,0,1,1.5,0v6.1H572v-6.09a.78.78,0,0,1,1.51,0v6.09h.75v-6.1a.78.78,0,0,1,1.51,0Zm8.73-.44V344.5a1.18,1.18,0,1,1-2.36,0V334.39A2.36,2.36,0,0,1,579.8,332V324.2a2.36,2.36,0,0,1,2.36-2.36,23.42,23.42,0,0,1,2.36.12Z"/><path class="cls-13" d="M457.59,425.88v7.68c8.82,6.47,17,0,17,0v-7.68L466.06,430Z"/><path class="cls-13" d="M481.93,427.53V421h-.32l.32-.16-15.87-7.91-15.87,7.91,15.87,7.72,14.75-7.17v6.16c-1.13.37-2,1.85-2,3.63,0,2,1.13,3.71,2.54,3.71s2.54-1.66,2.54-3.71c0-1.78-.85-3.26-2-3.63"/></g><text class="cls-8" transform="translate(166.03 356.21) scale(1 1.11)">COLEGIO</text><text class="cls-8" transform="translate(160.9 369.16) scale(1 1.11)">NEWLAND</text><g class="cls-4"><path class="cls-13" d="M178.59,328.86v7.68c8.82,6.47,16.95,0,16.95,0v-7.68L187.06,333Z"/><path class="cls-13" d="M202.93,330.51V324h-.32l.32-.16-15.87-7.9-15.87,7.9,15.87,7.73,14.75-7.18v6.16c-1.13.37-2,1.85-2,3.63,0,2.05,1.13,3.71,2.54,3.71s2.54-1.66,2.54-3.71c0-1.78-.85-3.26-2-3.63"/><path class="cls-13" d="M636.7,571.25v7.68c8.82,6.48,16.95,0,16.95,0v-7.68l-8.47,4.13Z"/><path class="cls-13" d="M661,572.91v-6.55h-.31l.32-.16-15.87-7.91L629.3,566.2l15.88,7.72,14.74-7.18v6.17c-1.13.37-2,1.85-2,3.62,0,2.05,1.14,3.72,2.54,3.72s2.54-1.67,2.54-3.72c0-1.77-.84-3.25-2-3.62"/><path class="cls-13" d="M479.46,597.34V605c8.82,6.47,17,0,17,0v-7.68l-8.48,4.12Z"/><path class="cls-13" d="M503.8,599v-6.55h-.32l.32-.16-15.87-7.91-15.87,7.91L487.93,600l14.75-7.17V599c-1.14.37-2,1.85-2,3.63,0,2,1.13,3.71,2.54,3.71s2.54-1.66,2.54-3.71c0-1.78-.85-3.26-2-3.63"/><path class="cls-13" d="M725.57,553.74v7.69c8.82,6.47,16.95,0,16.95,0v-7.69L734,557.87Z"/><path class="cls-13" d="M749.91,555.4v-6.55h-.32l.33-.16L734,540.78l-15.87,7.91L734,556.41l14.75-7.18v6.17c-1.13.37-2,1.85-2,3.62,0,2.05,1.14,3.72,2.54,3.72s2.54-1.67,2.54-3.72c0-1.77-.85-3.25-2-3.62"/></g><path class="cls-22" d="M472.79,218.53a53,53,0,1,1-53-53,53,53,0,0,1,53,53"/><path class="cls-6" d="M382,203.72h4a6,6,0,0,1,1.8.26,3.93,3.93,0,0,1,1.4.75,3.42,3.42,0,0,1,.91,1.21,4.54,4.54,0,0,1,0,3.4,3.45,3.45,0,0,1-1,1.23,4.65,4.65,0,0,1-1.48.73,7,7,0,0,1-1.88.24h-1.91v4.94H382Zm1.86,6.3H385a8.74,8.74,0,0,0,1.39-.1,3.23,3.23,0,0,0,1.11-.37,1.85,1.85,0,0,0,.71-.73,2.43,2.43,0,0,0,.27-1.21,2.35,2.35,0,0,0-.25-1.12,2.15,2.15,0,0,0-.66-.74,2.61,2.61,0,0,0-.93-.41,4.9,4.9,0,0,0-1.08-.12h-1.72Z"/><path class="cls-6" d="M396.61,203.72h1.66l5.08,12.76h-1.94l-1.4-3.55h-5.24l-1.38,3.55h-1.92Zm-1.34,7.74h4.19l-.85-2.21q-.35-.87-.63-1.68l-.56-1.66h0c-.19.57-.39,1.11-.59,1.64l-.65,1.7Z"/><path class="cls-6" d="M406.51,203.72h4.15a5,5,0,0,1,1.75.29,3.47,3.47,0,0,1,1.27.79,3.39,3.39,0,0,1,.77,1.2,4.47,4.47,0,0,1,.26,1.53,3.69,3.69,0,0,1-.22,1.32,3.64,3.64,0,0,1-.59,1,3.76,3.76,0,0,1-.84.75,5.58,5.58,0,0,1-1,.51l3.36,5.35h-2.09l-3-5h-2.09v5h-1.76Zm1.76,6.24h1.54a4.68,4.68,0,0,0,1.16-.13,2.63,2.63,0,0,0,.93-.41,1.83,1.83,0,0,0,.63-.72,2.2,2.2,0,0,0,.24-1.07,2.29,2.29,0,0,0-.68-1.82,3,3,0,0,0-2-.59h-1.84Z"/><path class="cls-6" d="M424.27,203.7a6.63,6.63,0,0,1,2.39.42,5.28,5.28,0,0,1,1.89,1.23,5.6,5.6,0,0,1,1.24,2.05,8.26,8.26,0,0,1,.45,2.86,7.12,7.12,0,0,1-.87,3.63,7.22,7.22,0,0,1-2.82,2.59L423.8,218a4,4,0,0,1,1.12.15l1.05.33c.35.13.71.24,1.09.34a5,5,0,0,0,1.26.15,3.1,3.1,0,0,0,.86-.13,3,3,0,0,0,.86-.42l.73,1.36a4.53,4.53,0,0,1-1.25.55,4.92,4.92,0,0,1-1.27.18,5.56,5.56,0,0,1-1.4-.19c-.47-.13-.93-.27-1.39-.43s-.91-.3-1.36-.42a4.71,4.71,0,0,0-1.33-.2,3.49,3.49,0,0,0-1,.17,4.94,4.94,0,0,0-1,.46l-.77-1.4,3.12-1.8a5.62,5.62,0,0,1-1.95-.66,5.1,5.1,0,0,1-1.52-1.29,5.68,5.68,0,0,1-1-1.93,8.56,8.56,0,0,1-.36-2.58,7.9,7.9,0,0,1,.47-2.82,5.93,5.93,0,0,1,1.27-2.06,5.28,5.28,0,0,1,1.92-1.25,6.44,6.44,0,0,1,2.4-.43m-4,6.56a8,8,0,0,0,.28,2.26,4.76,4.76,0,0,0,.8,1.61,3.25,3.25,0,0,0,1.22,1,3.64,3.64,0,0,0,1.54.33,3.87,3.87,0,0,0,1.58-.34,3.7,3.7,0,0,0,1.32-1,4.87,4.87,0,0,0,.9-1.62,6.82,6.82,0,0,0,.33-2.22,7.38,7.38,0,0,0-.31-2.29,4.49,4.49,0,0,0-.86-1.56,3.26,3.26,0,0,0-1.29-.92,4.29,4.29,0,0,0-1.57-.29,3.83,3.83,0,0,0-1.55.31,3.26,3.26,0,0,0-1.26.92,4.6,4.6,0,0,0-.83,1.59,7.45,7.45,0,0,0-.3,2.24"/><path class="cls-6" d="M434.07,203.72h1.86v7.53a4.35,4.35,0,0,0,.75,2.87,3,3,0,0,0,2.41.86,2.88,2.88,0,0,0,2.4-1,4,4,0,0,0,.76-2.53v-7.77h1.86v7.72a5,5,0,0,1-1.34,3.82,5.19,5.19,0,0,1-3.68,1.24,5.25,5.25,0,0,1-3.7-1.23,5.15,5.15,0,0,1-1.32-3.93Z"/><polygon class="cls-6" points="448.7 203.72 456.4 203.72 456.4 205.26 450.57 205.26 450.57 209.09 455.87 209.09 455.87 210.61 450.57 210.61 450.57 214.94 456.46 214.94 456.46 216.48 448.7 216.48 448.7 203.72"/><polygon class="cls-7" points="381.63 223.06 383.13 223.06 383.13 232.07 387.52 232.07 387.52 233.34 381.63 233.34 381.63 223.06"/><path class="cls-7" d="M393.33,223.06h1.34l4.09,10.28h-1.57l-1.12-2.86h-4.23l-1.11,2.86h-1.54Zm-1.08,6.23h3.38l-.69-1.78c-.18-.46-.35-.91-.5-1.35s-.31-.88-.46-1.34h0c-.15.46-.31.9-.47,1.32l-.53,1.37Z"/><polygon class="cls-7" points="406.15 233.34 406.15 223.06 407.65 223.06 407.65 227.38 412.53 227.38 412.53 223.06 414.03 223.06 414.03 233.34 412.53 233.34 412.53 228.66 407.65 228.66 407.65 233.34 406.15 233.34"/><path class="cls-7" d="M417.71,223.06h1.5v6.06a3.49,3.49,0,0,0,.61,2.32,2.45,2.45,0,0,0,1.94.69,2.33,2.33,0,0,0,1.93-.77,3.21,3.21,0,0,0,.61-2.05v-6.25h1.5v6.22a4,4,0,0,1-1.07,3.07,4.95,4.95,0,0,1-6,0,4.13,4.13,0,0,1-1.07-3.16Z"/><path class="cls-7" d="M432.37,223.06h1.34l4.1,10.28h-1.57l-1.12-2.86h-4.23l-1.11,2.86h-1.55Zm-1.07,6.23h3.38l-.69-1.78q-.27-.69-.51-1.35c-.15-.43-.3-.88-.45-1.34h0c-.15.46-.3.9-.47,1.32s-.34.88-.52,1.37Z"/><path class="cls-7" d="M443.24,223.05a7.67,7.67,0,0,1,1.45.12,5.25,5.25,0,0,1,1.39.45l-.36,1.33a6.76,6.76,0,0,0-1.27-.54,4,4,0,0,0-1.15-.16,2.35,2.35,0,0,0-1.46.4,1.29,1.29,0,0,0-.54,1.11,1.25,1.25,0,0,0,.4,1,3.39,3.39,0,0,0,1.31.63l1,.32a3.9,3.9,0,0,1,2,1.16,2.66,2.66,0,0,1,.58,1.66,2.59,2.59,0,0,1-.27,1.18,2.52,2.52,0,0,1-.75.9,3.66,3.66,0,0,1-1.13.58,5.07,5.07,0,0,1-1.44.19,8.69,8.69,0,0,1-1.59-.14,6.14,6.14,0,0,1-1.61-.51l.36-1.19a6.81,6.81,0,0,0,1.37.48,6.46,6.46,0,0,0,1.4.16,2.81,2.81,0,0,0,1.51-.4,1.31,1.31,0,0,0,.61-1.17A1.61,1.61,0,0,0,445,230a1.17,1.17,0,0,0-.31-.46,2.18,2.18,0,0,0-.59-.42,7.42,7.42,0,0,0-.95-.36l-1-.32a4,4,0,0,1-1.73-.95,2.16,2.16,0,0,1-.61-1.63,2.64,2.64,0,0,1,.89-2.09,3.89,3.89,0,0,1,2.59-.76"/><path class="cls-7" d="M452.52,223.06h1.34L458,233.34h-1.57l-1.12-2.86H451l-1.1,2.86h-1.55Zm-1.08,6.23h3.38l-.69-1.78c-.18-.46-.35-.91-.5-1.35s-.31-.88-.46-1.34h0c-.15.46-.31.9-.47,1.32l-.53,1.37Z"/><path class="cls-7" d="M351,199.5l-1.6-2c-2.07-2.63-4-5.34-5.84-8.15a47,47,0,0,1-3.72-6.78,14.78,14.78,0,0,1-1.13-3.7,9.86,9.86,0,0,1,.56-5.13,12.47,12.47,0,0,1,9.59-7.89A11.83,11.83,0,0,1,358,167.7a11.29,11.29,0,0,1,5,7,10.93,10.93,0,0,1-.51,6.61,48.92,48.92,0,0,1-4.11,8.14,82.49,82.49,0,0,1-7.19,9.91l-.17.19m6.87-23.07a6.74,6.74,0,1,0-7,6.52,6.64,6.64,0,0,0,7-6.52"/></svg>